# Blender v2.78 (sub 0) OBJ File: ''
# www.blender.org
mtllib Bonus_invincible.mtl
o pSphere2
v -0.608630 1.084803 -0.424510
v -0.563003 1.073295 -0.355048
v -0.398722 1.426689 -0.054743
v -0.608629 0.447311 -0.505564
v -0.398722 0.023770 -0.233118
v -0.563003 0.441069 -0.435433
v -0.500221 1.007754 -0.265788
v -0.013991 0.650399 0.444612
v -0.446600 0.896039 -0.196639
v -0.440031 0.872416 -0.189432
v -0.424999 0.730341 -0.184129
v -0.500221 0.482189 -0.332611
v -0.446600 0.573045 -0.237707
v -0.440031 0.594113 -0.224816
v -0.535511 0.377411 -0.453026
v -0.517568 0.367095 -0.443865
v -0.340914 0.284993 -0.364286
v -0.210732 0.261415 -0.325792
v -0.310615 0.278003 -0.354507
v -0.182780 0.308702 -0.265660
v -0.130454 0.391603 -0.187863
v -0.086187 0.458356 -0.142945
v -0.068569 0.484730 -0.126258
v 0.001423 0.585663 -0.083759
v 0.005725 0.591809 -0.081502
v 0.030981 0.626970 -0.073956
v 0.048814 0.651694 -0.069264
v 0.094744 0.714716 -0.061238
v 0.077264 0.690842 -0.063604
v 0.063078 0.671373 -0.066113
v -0.210732 1.219797 -0.203938
v -0.182780 1.158966 -0.157552
v -0.130454 1.059236 -0.102976
v -0.086187 0.983365 -0.076192
v -0.068569 0.953654 -0.066636
v 0.001423 0.845298 -0.050747
v 0.005725 0.838783 -0.050100
v 0.030981 0.802852 -0.051593
v 0.077264 0.738422 -0.057554
v 0.048814 0.777741 -0.053238
v 0.063078 0.757900 -0.055111
v -0.535510 1.139331 -0.356151
v -0.517567 1.147027 -0.344699
v -0.340914 1.206602 -0.247107
v -0.310614 1.210922 -0.235890
v -0.250102 0.291562 -0.313426
v -0.160465 0.247293 -0.317132
v 0.005364 0.037393 -0.340265
v 0.260831 0.290192 -0.302645
v 0.171194 0.246404 -0.310134
v 0.005365 0.221529 -0.316853
v -0.009672 0.649685 0.450224
v 0.285722 0.353654 -0.249899
v 0.712311 0.736956 -0.236160
v 0.476627 0.503734 -0.270867
v 0.401009 0.467737 -0.232922
v 0.287635 0.356620 -0.248261
v 0.391061 0.461007 -0.230451
v -0.701582 0.740750 -0.265994
v -0.465898 0.506263 -0.290755
v -0.392142 0.469865 -0.249658
v -0.276855 0.355163 -0.261770
v -0.382343 0.463082 -0.246769
v -0.278819 0.358140 -0.260213
v 0.476627 0.971444 -0.211399
v 0.515736 0.897346 -0.219982
v 0.515736 0.577622 -0.260634
v 0.542001 0.737413 -0.239754
v 0.401009 0.996800 -0.165654
v 0.005365 1.440313 -0.161889
v 0.260832 1.186143 -0.188728
v 0.285722 1.111501 -0.153542
v 0.391061 1.002697 -0.161577
v 0.287635 1.108219 -0.152698
v -0.250103 1.187514 -0.199509
v -0.276855 1.113010 -0.165413
v -0.465898 0.973973 -0.231287
v -0.392142 0.998928 -0.182390
v -0.278819 1.109739 -0.164650
v -0.382343 1.004772 -0.177896
v -0.505007 0.580360 -0.282172
v -0.505007 0.900084 -0.241520
v -0.531271 0.740293 -0.262400
v -0.160465 1.231302 -0.192020
v 0.171194 1.230413 -0.185022
v 0.005365 1.256177 -0.185301
v 0.613517 0.424342 -0.476032
v 0.569462 0.419233 -0.413928
v 0.396916 0.020408 -0.222703
v 0.619273 1.091042 -0.392696
v 0.406978 1.423303 -0.044422
v 0.574103 1.080262 -0.329781
v 0.503249 0.461890 -0.313676
v -0.006625 0.651984 0.439314
v 0.447095 0.554808 -0.220863
v 0.434328 0.595037 -0.197138
v 0.420528 0.727187 -0.159320
v 0.507135 1.015307 -0.243228
v 0.449553 0.904825 -0.176307
v 0.437667 0.865879 -0.164711
v 0.219442 0.255262 -0.320632
v 0.187875 0.305855 -0.258075
v 0.133527 0.389419 -0.182481
v 0.094621 0.447361 -0.145391
v 0.069939 0.483952 -0.123387
v 0.001437 0.583031 -0.084756
v -0.004897 0.592137 -0.081688
v -0.028742 0.625826 -0.075492
v -0.093583 0.716716 -0.065157
v -0.092509 0.715222 -0.065223
v -0.075200 0.691080 -0.066888
v -0.046753 0.651201 -0.071451
v -0.061060 0.671293 -0.068842
v 0.556864 0.372509 -0.438830
v 0.523081 0.353814 -0.423240
v 0.356976 0.279684 -0.356193
v 0.307865 0.268935 -0.342399
v 0.554378 1.138271 -0.336803
v 0.528860 1.149138 -0.321994
v 0.355603 1.207649 -0.235662
v 0.225761 1.222245 -0.198187
v 0.313540 1.213870 -0.222133
v 0.192973 1.157307 -0.149707
v 0.137234 1.058172 -0.097372
v 0.090491 0.982051 -0.072218
v 0.072576 0.953280 -0.063657
v 0.001431 0.846986 -0.050932
v -0.004286 0.838604 -0.050338
v -0.028804 0.804532 -0.052788
v -0.047136 0.779283 -0.055225
v -0.076531 0.739448 -0.060875
v -0.061852 0.759228 -0.057754
vt 0.3636 0.3636
vt 0.3932 0.3627
vt 0.5000 0.5000
vt 0.3636 0.1364
vt 0.5000 0.0000
vt 0.3932 0.1373
vt 0.4340 0.3437
vt 0.7500 0.2500
vt 0.4689 0.3076
vt 0.4732 0.2996
vt 0.4829 0.2500
vt 0.4340 0.1563
vt 0.4689 0.1924
vt 0.4732 0.2004
vt 0.3182 0.5000
vt 0.3121 0.5199
vt 0.2500 0.5000
vt 0.3122 0.5266
vt 0.3171 0.5970
vt 0.3292 0.6584
vt 0.3196 0.6109
vt 0.7500 0.5000
vt 0.6708 0.6584
vt 0.6250 0.5000
vt 0.6622 0.6544
vt 0.6446 0.6597
vt 0.6288 0.6721
vt 0.6224 0.6775
vt 0.5962 0.7077
vt 0.5946 0.7096
vt 0.5848 0.7235
vt 0.5779 0.7334
vt 0.5598 0.7607
vt 0.5667 0.7501
vt 0.5723 0.7417
vt 0.5000 0.6584
vt 0.5107 0.6544
vt 0.5256 0.6597
vt 0.5352 0.6721
vt 0.5389 0.6775
vt 0.5500 0.7077
vt 0.5506 0.7096
vt 0.5535 0.7235
vt 0.5582 0.7501
vt 0.5554 0.7334
vt 0.5569 0.7417
vt 0.4318 0.5000
vt 0.4479 0.5199
vt 0.4511 0.5266
vt 0.4814 0.5970
vt 0.4859 0.6109
vt 0.5903 0.0903
vt 0.5586 0.0746
vt 0.5000 0.0000
vt 0.4097 0.0903
vt 0.4414 0.0746
vt 0.5000 0.0656
vt 0.2500 0.5000
vt 0.2952 0.5000
vt 0.5000 1.0000
vt 0.3152 0.5310
vt 0.3750 0.5000
vt 0.3333 0.5000
vt 0.3356 0.5310
vt 0.3160 0.5318
vt 0.3351 0.5334
vt 0.6250 0.5000
vt 0.6667 0.5000
vt 0.6644 0.5310
vt 0.7500 0.5000
vt 0.7048 0.5000
vt 0.6848 0.5310
vt 0.6649 0.5334
vt 0.6840 0.5318
vt 0.3333 0.3333
vt 0.2500 0.2500
vt 0.3195 0.3070
vt 0.3333 0.1667
vt 0.3195 0.1930
vt 0.3102 0.2500
vt 0.4167 0.5000
vt 0.4299 0.5310
vt 0.5000 0.5000
vt 0.4548 0.5000
vt 0.4503 0.5310
vt 0.4316 0.5334
vt 0.4499 0.5318
vt 0.5452 0.5000
vt 0.5497 0.5310
vt 0.5833 0.5000
vt 0.5701 0.5310
vt 0.5501 0.5318
vt 0.5684 0.5334
vt 0.6667 0.1667
vt 0.7500 0.2500
vt 0.6805 0.1930
vt 0.6667 0.3333
vt 0.6805 0.3070
vt 0.6898 0.2500
vt 0.5903 0.4097
vt 0.5586 0.4254
vt 0.4097 0.4097
vt 0.4414 0.4254
vt 0.5000 0.4344
vt 0.6309 0.1309
vt 0.6040 0.1318
vt 0.5000 0.0000
vt 0.6315 0.3685
vt 0.5000 0.5000
vt 0.6039 0.3674
vt 0.5632 0.1511
vt 0.2500 0.2500
vt 0.5284 0.1876
vt 0.5204 0.2028
vt 0.5114 0.2508
vt 0.5632 0.3483
vt 0.5284 0.3124
vt 0.5213 0.2992
vt 0.2500 0.5000
vt 0.3750 0.5000
vt 0.3276 0.6551
vt 0.3367 0.6508
vt 0.3543 0.6562
vt 0.3679 0.6669
vt 0.3767 0.6743
vt 0.4022 0.7037
vt 0.4045 0.7066
vt 0.4138 0.7197
vt 0.4395 0.7580
vt 0.4391 0.7573
vt 0.4322 0.7467
vt 0.4209 0.7299
vt 0.4265 0.7382
vt 0.6845 0.5000
vt 0.7500 0.5000
vt 0.6892 0.5148
vt 0.6891 0.5269
vt 0.6847 0.5915
vt 0.6724 0.6551
vt 0.6808 0.6137
vt 0.5658 0.5000
vt 0.5520 0.5174
vt 0.5474 0.5268
vt 0.5184 0.5951
vt 0.5000 0.6557
vt 0.5122 0.6142
vt 0.4886 0.6513
vt 0.4737 0.6568
vt 0.4639 0.6694
vt 0.4604 0.6746
vt 0.4494 0.7046
vt 0.4486 0.7072
vt 0.4459 0.7205
vt 0.4439 0.7306
vt 0.4410 0.7477
vt 0.4424 0.7390
vn -0.8390 -0.0686 0.5398
vn -0.8390 -0.0686 0.5397
vn 0.1703 -0.4720 -0.8650
vn 0.1702 -0.4720 -0.8650
vn 0.7985 -0.5942 0.0961
vn 0.7986 -0.5942 0.0961
vn 0.7985 0.5513 0.2417
vn 0.7985 0.5513 0.2418
vn 0.1703 0.6735 -0.7193
vn 0.0213 0.1261 -0.9918
vn 0.5649 -0.6471 0.5120
vn -0.5895 -0.6440 0.4876
vn 0.5649 0.4984 0.6576
vn -0.5895 0.5015 0.6333
vn -0.5894 0.5015 0.6333
vn 0.8161 -0.0786 0.5725
vn -0.8089 -0.5844 0.0644
vn -0.8089 -0.5844 0.0645
vn -0.1417 -0.4703 -0.8711
vn -0.1335 0.6752 -0.7255
vn -0.8007 0.5611 0.2100
vn -0.8007 0.5610 0.2100
vn 0.7640 -0.3274 -0.5561
vn 0.6804 -0.3150 -0.6617
vn 0.7072 -0.3051 -0.6378
vn 0.7640 0.4561 -0.4564
vn 0.7072 0.4550 -0.5411
vn 0.6804 0.4706 -0.5618
vn 0.4987 -0.3166 -0.8069
vn 0.5481 -0.3596 -0.7552
vn 0.4648 -0.3150 -0.8275
vn 0.4987 0.5085 -0.7019
vn 0.5481 0.5372 -0.6412
vn 0.4648 0.5121 -0.7223
vn 0.4154 0.4758 -0.7753
vn 0.4154 -0.2666 -0.8697
vn 0.3228 -0.2531 -0.9120
vn 0.3228 0.4733 -0.8197
vn -0.0380 0.1260 -0.9913
vn 0.2777 0.0916 -0.9563
vn 0.2554 0.1742 -0.9510
vn 0.4118 -0.3192 -0.8535
vn 0.4428 -0.3198 -0.8376
vn 0.3730 -0.2074 -0.9044
vn 0.3151 -0.0316 -0.9485
vn 0.3384 -0.0915 -0.9365
vn 0.2610 0.1619 -0.9517
vn 0.3027 0.0183 -0.9529
vn 0.2862 0.0487 -0.9569
vn 0.2457 0.1971 -0.9491
vn 0.2400 0.2310 -0.9429
vn 0.2700 0.2652 -0.9256
vn 0.2377 0.2454 -0.9398
vn 0.2276 0.2701 -0.9355
vn 0.3131 -0.0987 -0.9446
vn 0.3094 -0.0633 -0.9488
vn 0.3069 -0.0324 -0.9512
vn 0.3060 -0.0053 -0.9520
vn 0.3026 0.1778 -0.9364
vn 0.3072 0.2063 -0.9290
vn 0.3368 0.3511 -0.8737
vn 0.3730 0.4271 -0.8237
vn 0.4428 0.5192 -0.7310
vn 0.4118 0.5227 -0.7465
vn 0.3053 0.6744 -0.6723
vn -0.1545 0.3156 -0.9362
vn -0.0789 0.2612 -0.9620
vn 0.3053 -0.4847 -0.8197
vn 0.0280 -0.2409 -0.9702
vn 0.0395 -0.2561 -0.9658
vn -0.2730 -0.4832 -0.8319
vn 0.0198 0.0764 -0.9969
vn 0.0147 -0.2398 -0.9707
vn -0.2730 0.6760 -0.6845
vn 0.0645 0.1786 -0.9818
vn 0.4162 0.0659 -0.9069
vn 0.5878 0.3922 -0.7076
vn 0.3803 0.1245 -0.9165
vn 0.3835 0.1287 -0.9145
vn 0.5878 -0.2027 -0.7832
vn 0.3824 0.1069 -0.9178
vn 0.3797 0.1116 -0.9183
vn -0.5553 -0.1996 -0.8073
vn -0.3310 0.1108 -0.9371
vn -0.3423 0.1097 -0.9332
vn -0.5553 0.3953 -0.7317
vn -0.4020 0.2088 -0.8915
vn -0.4026 0.1948 -0.8944
vn 0.0137 0.1261 -0.9919
vn 0.0102 0.1261 -0.9920
vn 0.0134 0.1297 -0.9915
vn 0.0175 0.1251 -0.9920
vn 0.0422 0.1105 -0.9930
vn 0.0201 0.1432 -0.9895
vn 0.0240 0.1835 -0.9827
vn 0.0971 0.1171 -0.9884
vn -0.0149 0.1246 -0.9921
vn -0.2283 0.0919 -0.9692
vn -0.7416 0.4601 -0.4882
vn -0.6331 0.5026 -0.5887
vn -0.6562 0.4850 -0.5781
vn -0.7416 -0.3233 -0.5878
vn -0.6712 -0.3098 -0.6734
vn -0.6422 -0.3246 -0.6944
vn -0.4587 -0.3234 -0.8277
vn -0.5213 -0.3684 -0.7698
vn -0.4178 -0.3185 -0.8509
vn -0.3705 -0.2602 -0.8917
vn -0.2884 -0.2634 -0.9206
vn 0.0973 0.1133 -0.9888
vn -0.2653 0.3376 -0.9031
vn -0.2033 0.0729 -0.9764
vn -0.4508 0.5260 -0.7212
vn -0.5257 0.5561 -0.6437
vn -0.4112 0.5260 -0.7445
vn -0.3617 0.4738 -0.8029
vn -0.2918 0.4911 -0.8208
vn -0.3792 0.5388 -0.7523
vn -0.4014 0.5296 -0.7472
vn -0.3306 0.4389 -0.8355
vn -0.2755 0.2804 -0.9195
vn -0.2905 0.3571 -0.8878
vn -0.2511 0.2344 -0.9392
vn -0.2117 0.0810 -0.9740
vn -0.2379 0.1999 -0.9505
vn -0.1983 0.0623 -0.9782
vn -0.1913 0.0177 -0.9814
vn -0.2292 -0.0410 -0.9725
vn -0.1914 0.0055 -0.9815
vn -0.1814 -0.0196 -0.9832
vn -0.1723 -0.0450 -0.9840
vn -0.2647 0.3315 -0.9056
vn -0.2606 0.2981 -0.9183
vn -0.2580 0.2686 -0.9281
vn -0.2571 0.2390 -0.9364
vn -0.2544 0.0626 -0.9651
vn -0.2596 0.0318 -0.9652
vn -0.2933 -0.1214 -0.9483
vn -0.3306 -0.2063 -0.9210
vn -0.4050 -0.3213 -0.8560
vn -0.3814 -0.3284 -0.8641
usemtl initialShadingGroup
s 1
f 1/1/1 2/2/2 3/3/2
f 4/4/2 5/5/2 6/6/2
f 2/2/2 7/7/2 3/3/2
f 3/3/2 7/7/2 8/8/2
f 7/7/2 9/9/2 8/8/2
f 9/9/2 10/10/2 8/8/2
f 10/10/2 11/11/2 8/8/2
f 6/6/2 5/5/2 12/12/2
f 5/5/2 8/8/2 12/12/2
f 12/12/2 8/8/2 13/13/2
f 13/13/2 8/8/2 14/14/2
f 8/8/2 11/11/2 14/14/2
f 4/15/3 15/16/3 5/17/3
f 15/16/3 16/18/4 5/17/3
f 16/18/4 17/19/3 5/17/3
f 18/20/3 5/17/3 19/21/3
f 5/17/3 17/19/3 19/21/3
f 5/22/5 18/23/5 8/24/5
f 18/23/5 20/25/5 8/24/5
f 20/25/5 21/26/5 8/24/5
f 21/26/5 22/27/5 8/24/5
f 22/27/5 23/28/5 8/24/5
f 23/28/5 24/29/5 8/24/5
f 24/29/5 25/30/5 8/24/5
f 25/30/5 26/31/5 8/24/5
f 26/31/5 27/32/5 8/24/5
f 28/33/6 8/24/5 29/34/5
f 29/34/5 8/24/5 30/35/5
f 8/24/5 27/32/5 30/35/5
f 3/3/7 8/24/7 31/36/7
f 31/36/7 8/24/7 32/37/8
f 32/37/8 8/24/7 33/38/7
f 33/38/7 8/24/7 34/39/7
f 34/39/7 8/24/7 35/40/7
f 35/40/7 8/24/7 36/41/7
f 36/41/7 8/24/7 37/42/7
f 37/42/7 8/24/7 38/43/7
f 28/33/7 39/44/7 8/24/7
f 38/43/7 8/24/7 40/45/7
f 39/44/7 41/46/7 8/24/7
f 8/24/7 41/46/7 40/45/7
f 1/47/9 3/3/9 42/48/9
f 42/48/9 3/3/9 43/49/9
f 43/49/9 3/3/9 44/50/9
f 31/36/9 45/51/9 3/3/9
f 3/3/9 45/51/9 44/50/9
f 46/52/10 47/53/10 48/54/10
f 49/55/10 48/54/10 50/56/10
f 47/53/10 51/57/10 48/54/10
f 48/54/10 51/57/10 50/56/10
f 48/58/11 49/59/11 52/60/11
f 49/59/11 53/61/11 52/60/11
f 54/62/11 52/60/11 55/63/11
f 55/63/11 52/60/11 56/64/11
f 53/61/11 57/65/11 52/60/11
f 56/64/11 52/60/11 58/66/11
f 57/65/11 58/66/11 52/60/11
f 59/67/12 60/68/12 52/60/12
f 60/68/12 61/69/12 52/60/12
f 48/70/12 52/60/12 46/71/12
f 46/71/12 52/60/12 62/72/12
f 61/69/12 63/73/12 52/60/12
f 62/72/12 52/60/12 64/74/12
f 63/73/12 64/74/12 52/60/12
f 65/75/10 54/76/10 66/77/10
f 55/78/10 67/79/10 54/76/10
f 67/79/10 68/80/10 54/76/10
f 54/76/10 68/80/10 66/77/10
f 54/62/13 65/81/13 52/60/13
f 65/81/13 69/82/13 52/60/13
f 70/83/13 52/60/13 71/84/13
f 71/84/13 52/60/13 72/85/13
f 69/82/13 73/86/13 52/60/13
f 72/85/13 52/60/13 74/87/13
f 73/86/13 74/87/13 52/60/13
f 70/83/14 75/88/14 52/60/14
f 75/88/14 76/89/14 52/60/14
f 59/67/14 52/60/14 77/90/14
f 77/90/14 52/60/14 78/91/14
f 76/89/14 79/92/15 52/60/14
f 78/91/14 52/60/14 80/93/14
f 79/92/15 80/93/14 52/60/14
f 60/94/10 59/95/10 81/96/10
f 77/97/10 82/98/10 59/95/10
f 82/98/10 83/99/10 59/95/10
f 59/95/10 83/99/10 81/96/10
f 75/100/10 70/83/10 84/101/10
f 71/102/10 85/103/10 70/83/10
f 85/103/10 86/104/10 70/83/10
f 70/83/10 86/104/10 84/101/10
f 87/105/16 88/106/16 89/107/16
f 90/108/16 91/109/16 92/110/16
f 88/106/16 93/111/16 89/107/16
f 89/107/16 93/111/16 94/112/16
f 93/111/16 95/113/16 94/112/16
f 95/113/16 96/114/16 94/112/16
f 96/114/16 97/115/16 94/112/16
f 92/110/16 91/109/16 98/116/16
f 91/109/16 94/112/16 98/116/16
f 98/116/16 94/112/16 99/117/16
f 99/117/16 94/112/16 100/118/16
f 97/115/16 100/118/16 94/112/16
f 89/119/17 94/120/17 101/121/17
f 101/121/17 94/120/17 102/122/17
f 102/122/17 94/120/17 103/123/17
f 103/123/17 94/120/17 104/124/17
f 104/124/17 94/120/17 105/125/17
f 105/125/17 94/120/17 106/126/17
f 106/126/17 94/120/17 107/127/17
f 107/127/17 94/120/17 108/128/17
f 109/129/18 110/130/18 94/120/17
f 110/130/18 111/131/17 94/120/17
f 108/128/17 94/120/17 112/132/17
f 111/131/17 113/133/17 94/120/17
f 94/120/17 113/133/17 112/132/17
f 87/134/19 89/135/19 114/136/19
f 114/136/19 89/135/19 115/137/19
f 115/137/19 89/135/19 116/138/19
f 101/139/19 117/140/19 89/135/19
f 89/135/19 117/140/19 116/138/19
f 90/141/20 118/142/20 91/109/20
f 118/142/20 119/143/20 91/109/20
f 119/143/20 120/144/20 91/109/20
f 121/145/20 91/109/20 122/146/20
f 91/109/20 120/144/20 122/146/20
f 91/109/21 121/145/21 94/120/21
f 121/145/21 123/147/21 94/120/21
f 123/147/21 124/148/21 94/120/21
f 124/148/21 125/149/21 94/120/21
f 125/149/21 126/150/21 94/120/21
f 126/150/21 127/151/22 94/120/21
f 127/151/22 128/152/22 94/120/21
f 128/152/22 129/153/21 94/120/21
f 129/153/21 130/154/21 94/120/21
f 109/129/21 94/120/21 131/155/21
f 131/155/21 94/120/21 132/156/21
f 94/120/21 130/154/21 132/156/21
f 1/47/23 42/48/24 2/2/25
f 4/4/26 6/6/27 15/16/28
f 2/2/25 42/48/24 7/7/29
f 42/48/24 43/49/30 7/7/29
f 43/49/30 44/50/31 7/7/29
f 6/6/27 12/12/32 15/16/28
f 15/16/28 12/12/32 16/18/33
f 16/18/33 12/12/32 17/19/34
f 12/12/32 13/13/35 17/19/34
f 7/7/29 44/50/31 9/9/36
f 44/50/31 45/51/37 9/9/36
f 17/19/34 13/13/35 19/21/38
f 28/33/39 29/34/40 39/44/41
f 45/51/37 31/36/42 9/9/36
f 31/36/42 32/37/43 9/9/36
f 32/37/43 33/38/44 9/9/36
f 9/9/36 33/38/44 10/10/45
f 33/38/44 34/39/46 10/10/45
f 10/10/45 34/39/46 11/11/47
f 34/39/46 35/40/48 11/11/47
f 35/40/48 36/41/49 11/11/47
f 36/41/49 37/42/50 11/11/47
f 37/42/50 38/43/51 11/11/47
f 11/11/47 38/43/51 14/14/52
f 38/43/51 40/45/53 14/14/52
f 40/45/53 41/46/54 14/14/52
f 41/46/54 39/44/41 14/14/52
f 39/44/41 29/34/40 14/14/52
f 29/34/40 30/35/55 14/14/52
f 30/35/55 27/32/56 14/14/52
f 27/32/56 26/31/57 14/14/52
f 26/31/57 25/30/58 14/14/52
f 25/30/58 24/29/59 14/14/52
f 24/29/59 23/28/60 14/14/52
f 23/28/60 22/27/61 14/14/52
f 22/27/61 21/26/62 14/14/52
f 14/14/52 21/26/62 13/13/35
f 21/26/62 20/25/63 13/13/35
f 20/25/63 18/20/64 13/13/35
f 18/20/64 19/21/38 13/13/35
f 46/71/65 62/72/66 47/53/67
f 75/100/68 84/101/69 76/89/70
f 71/84/71 72/85/72 85/103/73
f 49/55/74 50/56/75 53/61/76
f 60/94/77 81/96/78 61/69/79
f 77/90/80 78/91/81 82/98/82
f 65/75/83 66/77/84 69/82/85
f 55/63/86 56/64/87 67/79/88
f 83/99/10 82/98/82 81/96/78
f 81/96/78 82/98/82 61/69/79
f 82/98/82 78/91/81 61/69/79
f 61/69/79 78/91/81 63/73/89
f 78/91/81 80/93/90 63/73/89
f 63/73/89 80/93/90 64/74/91
f 80/93/90 79/92/92 64/74/91
f 86/104/10 85/103/73 84/101/69
f 84/101/69 85/103/73 76/89/70
f 85/103/73 72/85/72 76/89/70
f 76/89/70 72/85/72 79/92/92
f 79/92/92 72/85/72 64/74/91
f 72/85/72 74/87/93 64/74/91
f 74/87/93 73/86/94 64/74/91
f 64/74/91 73/86/94 62/72/66
f 62/72/66 73/86/94 47/53/67
f 47/53/67 73/86/94 51/57/95
f 51/57/95 73/86/94 50/56/75
f 50/56/75 73/86/94 53/61/76
f 53/61/76 73/86/94 57/65/96
f 57/65/96 73/86/94 58/66/97
f 73/86/94 69/82/85 58/66/97
f 69/82/85 66/77/84 58/66/97
f 66/77/84 68/80/98 58/66/97
f 58/66/97 68/80/98 56/64/87
f 68/80/98 67/79/88 56/64/87
f 87/134/99 114/136/100 88/106/101
f 90/108/102 92/110/103 118/142/104
f 92/110/103 98/116/105 118/142/104
f 118/142/104 98/116/105 119/143/106
f 119/143/106 98/116/105 120/144/107
f 98/116/105 99/117/108 120/144/107
f 120/144/107 99/117/108 122/146/109
f 109/129/110 131/155/111 110/130/112
f 88/106/101 114/136/100 93/111/113
f 114/136/100 115/137/114 93/111/113
f 115/137/114 116/138/115 93/111/113
f 93/111/113 116/138/115 95/113/116
f 116/138/115 117/140/117 95/113/116
f 117/140/117 101/121/118 95/113/116
f 101/121/118 102/122/119 95/113/116
f 102/122/119 103/123/120 95/113/116
f 95/113/116 103/123/120 96/114/121
f 103/123/120 104/124/122 96/114/121
f 104/124/122 105/125/123 96/114/121
f 96/114/121 105/125/123 97/115/124
f 105/125/123 106/126/125 97/115/124
f 106/126/125 107/127/126 97/115/124
f 107/127/126 108/128/127 97/115/124
f 97/115/124 108/128/127 100/118/128
f 108/128/127 112/132/129 100/118/128
f 112/132/129 113/133/130 100/118/128
f 113/133/130 111/131/131 100/118/128
f 111/131/131 110/130/112 100/118/128
f 110/130/112 131/155/111 100/118/128
f 131/155/111 132/156/132 100/118/128
f 132/156/132 130/154/133 100/118/128
f 130/154/133 129/153/134 100/118/128
f 129/153/134 128/152/135 100/118/128
f 128/152/135 127/151/136 100/118/128
f 127/151/136 126/150/137 100/118/128
f 126/150/137 125/149/138 100/118/128
f 125/149/138 124/148/139 100/118/128
f 100/118/128 124/148/139 99/117/108
f 124/148/139 123/147/140 99/117/108
f 123/147/140 121/145/141 99/117/108
f 121/145/141 122/146/109 99/117/108
