# This file uses centimeters as units for non-parametric coordinates.

mtllib Star.mtl
g default
v 0.000000 -0.000000 -1.000183
v -0.000000 0.000000 0.004481
v 0.000000 -0.000000 0.014085
vt 0.000000 0.000000
vt 0.994484 0.000000
vt 0.011810 1.000000
vn 1.000000 0.000000 0.000000
vn 1.000000 0.000000 0.000000
vn 1.000000 0.000000 0.000000
s off
g polySurface15
usemtl initialShadingGroup
f 1/1/1 2/2/2 3/3/3
g default
v -0.140067 0.000000 0.142763
v -0.017096 0.000000 0.039227
v 0.001145 0.000000 0.140272
v 0.011579 0.000000 0.045373
v 0.143735 0.000000 0.139073
v 0.039087 0.000000 0.017239
v 0.141464 0.000000 -0.002124
v 0.045604 0.000000 -0.011353
v 0.139681 0.000000 -0.143140
v 0.014872 0.000000 -0.041402
v -0.001296 0.000000 -0.142227
v -0.017518 0.000000 -0.039299
v -0.142104 0.000000 -0.140741
v -0.042583 0.000000 -0.013664
v -0.141454 0.000000 0.000558
v -0.042265 0.000000 0.014618
vt 0.098400 0.196332
vt 0.281552 0.467856
vt -0.012738 0.535770
vt 0.298483 0.627476
vt 0.090531 0.894443
vt 0.384943 0.710527
vt 0.490040 1.011441
vt 0.541734 0.725579
vt 0.892462 0.898033
vt 0.699826 0.614850
vt 0.990382 0.538916
vt 0.690081 0.460840
vt 0.893727 0.196142
vt 0.568959 0.366597
vt 0.491065 -0.007942
vt 0.436410 0.371439
vn 0.000000 1.000000 0.000000
vn 0.000000 1.000000 0.000000
vn 0.000000 1.000000 0.000000
vn 0.000000 1.000000 0.000000
vn 0.000000 1.000000 0.000000
vn 0.000000 1.000000 0.000000
vn 0.000000 1.000000 0.000000
vn 0.000000 1.000000 0.000000
vn 0.000000 1.000000 0.000000
vn 0.000000 1.000000 0.000000
vn 0.000000 1.000000 0.000000
vn 0.000000 1.000000 0.000000
vn 0.000000 1.000000 0.000000
vn 0.000000 1.000000 0.000000
vn 0.000000 1.000000 0.000000
vn 0.000000 1.000000 0.000000
s 1
g polySurface16
usemtl initialShadingGroup
f 4/4/4 5/5/5 19/19/6
f 8/8/7 9/9/8 7/7/9
f 16/16/10 17/17/11 15/15/12
f 6/6/13 7/7/9 5/5/5
f 10/10/14 11/11/15 9/9/8
f 12/12/16 13/13/17 11/11/15
f 14/14/18 15/15/12 13/13/17
f 18/18/19 19/19/6 17/17/11
f 11/11/15 13/13/17 9/9/8
f 13/13/17 15/15/12 9/9/8
f 15/15/12 17/17/11 9/9/8
f 9/9/8 17/17/11 7/7/9
f 7/7/9 17/17/11 5/5/5
f 5/5/5 17/17/11 19/19/6
