# This file uses centimeters as units for non-parametric coordinates.

mtllib Ui2.mtl
g default
v 0.000000 -0.500000 0.000000
v 2.500000 -0.500000 0.000000
v 0.000000 0.000000 0.000000
v 2.500000 0.000000 0.000000
vt 1.000000 1.000000
vt 0.000000 0.000000
vt 0.000000 1.000000
vt 1.000000 0.000000
vn 0.000000 0.000000 1.000000
vn 0.000000 0.000000 1.000000
vn 0.000000 0.000000 1.000000
vn 0.000000 0.000000 1.000000
vn 0.000000 0.000000 1.000000
vn 0.000000 0.000000 1.000000
s off
g ui:Mesh
usemtl initialShadingGroup
f 2/1/1 3/2/2 1/3/3
f 2/1/4 4/4/5 3/2/6
