# This file uses centimeters as units for non-parametric coordinates.

mtllib Bonus_invincible.mtl
g default
v 0.401698 -0.011532 0.044532
v 0.004437 0.763710 -0.446573
v 0.401698 1.391387 0.222908
v 0.618442 0.968418 0.490853
v 0.571330 0.974535 0.421700
v 0.506503 0.933245 0.320224
v 0.451136 0.842243 0.226469
v 0.444353 0.821157 0.213720
v 0.428831 0.684888 0.173355
v 0.444353 0.542854 0.178335
v 0.451136 0.519248 0.185402
v 0.506503 0.407680 0.253401
v 0.571330 0.342309 0.341315
v 0.618442 0.330926 0.409798
v 0.544044 0.276200 0.342996
v 0.525884 0.268457 0.331925
v 0.347371 0.208405 0.238079
v 0.316854 0.204003 0.227504
v 0.216343 0.194859 0.197665
v 0.187256 0.255614 0.151882
v 0.133523 0.355202 0.098424
v 0.088497 0.430953 0.072582
v 0.070602 0.460616 0.063401
v 0.000000 0.568784 0.048995
v -0.004332 0.575288 0.048439
v -0.029647 0.611150 0.050465
v -0.047509 0.636214 0.052487
v -0.061784 0.656017 0.054661
v -0.075967 0.675457 0.057403
v -0.093429 0.699116 0.061456
v -0.075967 0.723036 0.063453
v -0.061784 0.742544 0.065663
v -0.047509 0.762261 0.068513
v -0.029647 0.787033 0.072828
v -0.004332 0.822261 0.079841
v -0.000000 0.828419 0.082007
v 0.070602 0.929540 0.123022
v 0.088497 0.955962 0.139335
v 0.133523 1.022835 0.183311
v 0.187256 1.105878 0.259989
v 0.216343 1.153242 0.319520
v 0.316853 1.136922 0.346121
v 0.347371 1.130014 0.355258
v 0.525883 1.048388 0.431090
v 0.544043 1.038120 0.439871
v 0.000000 -0.026236 0.160179
v 0.255524 0.227248 0.192408
v 0.165867 0.183219 0.186810
v 0.000000 0.157899 0.183591
v -0.165867 0.183219 0.186810
v -0.255524 0.227248 0.192408
v -0.281352 0.301822 0.157757
v -0.283291 0.305099 0.156954
v -0.386790 0.410344 0.168015
v -0.396665 0.416214 0.172301
v -0.471369 0.441369 0.219633
v -0.707107 0.675224 0.249367
v 0.000000 0.764411 -0.452093
v 0.707107 0.675224 0.249367
v 0.471370 0.441369 0.219633
v 0.396665 0.416215 0.172301
v 0.386789 0.410344 0.168015
v 0.283291 0.305099 0.156953
v 0.281352 0.301822 0.157757
v -0.471369 0.909079 0.279100
v -0.510487 0.515362 0.229041
v -0.536757 0.675224 0.249367
v -0.510487 0.835086 0.269692
v -0.396665 0.945277 0.239570
v -0.386790 0.952033 0.236889
v -0.283291 1.056698 0.252516
v -0.281352 1.059669 0.254114
v -0.255525 1.123199 0.306325
v -0.000000 1.376683 0.338554
v 0.255525 1.123199 0.306325
v 0.281352 1.059669 0.254114
v 0.283291 1.056698 0.252516
v 0.386790 0.952033 0.236889
v 0.396665 0.945277 0.239570
v 0.471369 0.909079 0.279100
v 0.510487 0.835086 0.269692
v 0.536757 0.675224 0.249367
v 0.510487 0.515362 0.229041
v -0.165867 1.167228 0.311923
v -0.000000 1.192548 0.315142
v 0.165867 1.167228 0.311923
v -0.393988 -0.014316 0.050393
v -0.604113 0.312800 0.401247
v -0.561392 0.323511 0.338925
v -0.497195 0.390073 0.251162
v -0.442762 0.503409 0.183388
v -0.430390 0.548329 0.170220
v -0.417037 0.685774 0.166388
v -0.433686 0.818659 0.206671
v -0.445220 0.853433 0.227892
v -0.501081 0.943501 0.321528
v -0.566034 0.984552 0.422974
v -0.609838 0.979126 0.487523
v -0.404047 1.388530 0.229067
v -0.002811 0.763899 -0.440893
v 0.094944 0.700577 0.061777
v 0.093867 0.699111 0.061489
v 0.076532 0.675274 0.057426
v 0.062384 0.655589 0.054664
v 0.048081 0.635446 0.052464
v 0.030092 0.609818 0.050407
v 0.006292 0.575587 0.048477
v 0.000000 0.565986 0.049302
v -0.067937 0.460209 0.063349
v -0.092248 0.419210 0.076013
v -0.130518 0.353727 0.098237
v -0.183483 0.253761 0.151646
v -0.213859 0.189040 0.200205
v -0.301766 0.196594 0.226562
v -0.350546 0.203418 0.243639
v -0.515001 0.257967 0.330591
v -0.548397 0.272076 0.351072
v -0.546010 1.039011 0.443869
v -0.520780 1.053307 0.431715
v -0.349227 1.132023 0.359135
v -0.307442 1.141544 0.346709
v -0.220166 1.155879 0.323774
v -0.188582 1.105226 0.259907
v -0.134226 1.022490 0.183267
v -0.088228 0.955209 0.138887
v -0.070575 0.929544 0.123023
v -0.000000 0.830007 0.082608
v 0.005682 0.822055 0.079815
v 0.030154 0.788520 0.073144
v 0.048466 0.763514 0.068798
v 0.063178 0.743503 0.065918
v 0.077866 0.723611 0.063680
vt 0.500000 0.000000
vt 0.750000 0.250000
vt 0.500000 0.500000
vt 0.363601 0.363601
vt 0.393249 0.362662
vt 0.434045 0.343655
vt 0.468888 0.307557
vt 0.473157 0.299594
vt 0.482925 0.250000
vt 0.473157 0.200406
vt 0.468888 0.192442
vt 0.434045 0.156344
vt 0.393249 0.137337
vt 0.363601 0.136399
vt 0.250000 0.500000
vt 0.318199 0.500000
vt 0.312097 0.519936
vt 0.312154 0.526584
vt 0.317143 0.597034
vt 0.319611 0.610938
vt 0.329216 0.658433
vt 0.625000 0.500000
vt 0.750000 0.500000
vt 0.670784 0.658433
vt 0.662168 0.654360
vt 0.644552 0.659735
vt 0.628755 0.672094
vt 0.622417 0.677458
vt 0.596218 0.707660
vt 0.594593 0.709649
vt 0.584806 0.723459
vt 0.577868 0.733449
vt 0.572294 0.741664
vt 0.566723 0.750067
vt 0.559827 0.760693
vt 0.558244 0.750067
vt 0.556875 0.741664
vt 0.555407 0.733449
vt 0.553464 0.723459
vt 0.550582 0.709650
vt 0.549951 0.707660
vt 0.538855 0.677458
vt 0.535198 0.672094
vt 0.525580 0.659735
vt 0.510651 0.654361
vt 0.500000 0.658433
vt 0.431800 0.500000
vt 0.485858 0.610938
vt 0.481374 0.597034
vt 0.451138 0.526585
vt 0.447871 0.519937
vt 0.500000 0.000000
vt 0.590342 0.090342
vt 0.558643 0.074650
vt 0.500000 0.065626
vt 0.441357 0.074650
vt 0.409658 0.090342
vt 0.250000 0.500000
vt 0.295171 0.500000
vt 0.315215 0.530958
vt 0.315986 0.531813
vt 0.335096 0.533441
vt 0.335600 0.530958
vt 0.333327 0.500000
vt 0.375000 0.500000
vt 0.500000 1.000000
vt 0.625000 0.500000
vt 0.666673 0.500000
vt 0.664400 0.530958
vt 0.664904 0.533441
vt 0.684014 0.531813
vt 0.684785 0.530958
vt 0.704829 0.500000
vt 0.750000 0.500000
vt 0.333346 0.333346
vt 0.250000 0.250000
vt 0.333346 0.166654
vt 0.319516 0.193025
vt 0.310228 0.250000
vt 0.319516 0.306975
vt 0.416673 0.500000
vt 0.429879 0.530958
vt 0.431625 0.533441
vt 0.449921 0.531813
vt 0.450263 0.530958
vt 0.454829 0.500000
vt 0.500000 0.500000
vt 0.545171 0.500000
vt 0.549737 0.530958
vt 0.550079 0.531813
vt 0.568375 0.533440
vt 0.570121 0.530958
vt 0.583327 0.500000
vt 0.666654 0.166654
vt 0.750000 0.250000
vt 0.666654 0.333346
vt 0.680484 0.306975
vt 0.689772 0.250000
vt 0.680484 0.193025
vt 0.590342 0.409658
vt 0.409658 0.409658
vt 0.441357 0.425350
vt 0.500000 0.434374
vt 0.558643 0.425350
vt 0.500000 0.000000
vt 0.630924 0.130923
vt 0.603956 0.131789
vt 0.563204 0.151051
vt 0.528394 0.187635
vt 0.520395 0.202770
vt 0.511360 0.250769
vt 0.521251 0.299214
vt 0.528361 0.312387
vt 0.563153 0.348297
vt 0.603895 0.367389
vt 0.631520 0.368480
vt 0.500000 0.500000
vt 0.250000 0.250000
vt 0.250000 0.500000
vt 0.375000 0.500000
vt 0.439498 0.757994
vt 0.439067 0.757317
vt 0.432154 0.746661
vt 0.426541 0.738192
vt 0.420898 0.729874
vt 0.413839 0.719706
vt 0.404542 0.706581
vt 0.402155 0.703661
vt 0.376655 0.674259
vt 0.367936 0.666889
vt 0.354333 0.656230
vt 0.336711 0.650822
vt 0.327558 0.655116
vt 0.684538 0.500000
vt 0.750000 0.500000
vt 0.672442 0.655116
vt 0.680783 0.613659
vt 0.684683 0.591498
vt 0.689119 0.526900
vt 0.689182 0.514753
vt 0.565760 0.500000
vt 0.551952 0.517450
vt 0.547414 0.526786
vt 0.518375 0.595077
vt 0.512249 0.614221
vt 0.500000 0.655650
vt 0.488573 0.651337
vt 0.473653 0.656809
vt 0.463946 0.669371
vt 0.460388 0.674645
vt 0.449442 0.704643
vt 0.448626 0.707237
vt 0.445878 0.720484
vt 0.443913 0.730646
vt 0.442422 0.739048
vt 0.441024 0.747683
vn 0.827264 0.070861 -0.557326
vn 0.827265 0.070861 -0.557325
vn 0.827265 0.070862 -0.557324
vn 0.827265 0.070862 -0.557324
vn 0.827265 0.070862 -0.557324
vn 0.827265 0.070862 -0.557324
vn 0.827266 0.070862 -0.557324
vn 0.827265 0.070862 -0.557324
vn 0.827266 0.070861 -0.557324
vn 0.827266 0.070861 -0.557325
vn 0.827266 0.070862 -0.557324
vn 0.827266 0.070861 -0.557324
vn 0.827266 0.070862 -0.557324
vn 0.827266 0.070863 -0.557324
vn -0.153260 -0.673895 0.722757
vn -0.153260 -0.673895 0.722757
vn -0.153260 -0.673894 0.722757
vn -0.153260 -0.673894 0.722757
vn -0.153260 -0.673894 0.722757
vn -0.153260 -0.673894 0.722758
vn -0.153260 -0.673894 0.722758
vn -0.801984 -0.553409 -0.224858
vn -0.801984 -0.553409 -0.224858
vn -0.801984 -0.553409 -0.224858
vn -0.801984 -0.553408 -0.224857
vn -0.801984 -0.553408 -0.224858
vn -0.801984 -0.553409 -0.224857
vn -0.801984 -0.553409 -0.224858
vn -0.801984 -0.553408 -0.224858
vn -0.801984 -0.553409 -0.224858
vn -0.801984 -0.553409 -0.224858
vn -0.801984 -0.553409 -0.224858
vn -0.801984 -0.553409 -0.224858
vn -0.801984 -0.553409 -0.224858
vn -0.801984 -0.553409 -0.224858
vn -0.801984 0.592070 -0.079215
vn -0.801984 0.592070 -0.079215
vn -0.801984 0.592070 -0.079215
vn -0.801984 0.592070 -0.079216
vn -0.801984 0.592070 -0.079214
vn -0.801983 0.592071 -0.079214
vn -0.801984 0.592070 -0.079214
vn -0.801984 0.592070 -0.079215
vn -0.801984 0.592070 -0.079215
vn -0.801984 0.592070 -0.079215
vn -0.801984 0.592070 -0.079214
vn -0.801984 0.592070 -0.079214
vn -0.801984 0.592070 -0.079215
vn -0.801984 0.592070 -0.079215
vn -0.153259 0.471585 0.868400
vn -0.153260 0.471585 0.868400
vn -0.153259 0.471585 0.868400
vn -0.153260 0.471584 0.868401
vn -0.153260 0.471585 0.868401
vn -0.153261 0.471585 0.868400
vn -0.153260 0.471585 0.868400
vn 0.000000 -0.126131 0.992014
vn 0.000000 -0.126131 0.992014
vn 0.000000 -0.126131 0.992014
vn 0.000000 -0.126131 0.992014
vn 0.000000 -0.126131 0.992014
vn 0.000000 -0.126131 0.992014
vn -0.577350 -0.499918 -0.645561
vn -0.577350 -0.499918 -0.645561
vn -0.577350 -0.499918 -0.645561
vn -0.577350 -0.499919 -0.645561
vn -0.577350 -0.499918 -0.645561
vn -0.577350 -0.499918 -0.645561
vn -0.577350 -0.499918 -0.645561
vn -0.577351 -0.499918 -0.645561
vn -0.577350 -0.499918 -0.645561
vn 0.577350 -0.499918 -0.645561
vn 0.577350 -0.499918 -0.645561
vn 0.577350 -0.499918 -0.645561
vn 0.577350 -0.499918 -0.645561
vn 0.577350 -0.499918 -0.645561
vn 0.577350 -0.499918 -0.645561
vn 0.577351 -0.499918 -0.645561
vn 0.577351 -0.499917 -0.645561
vn 0.577350 -0.499918 -0.645561
vn 0.000000 -0.126131 0.992014
vn 0.000000 -0.126131 0.992014
vn 0.000000 -0.126131 0.992014
vn 0.000000 -0.126131 0.992014
vn 0.000000 -0.126131 0.992014
vn 0.000000 -0.126131 0.992014
vn -0.577350 0.645561 -0.499918
vn -0.577350 0.645561 -0.499918
vn -0.577350 0.645561 -0.499918
vn -0.577350 0.645561 -0.499918
vn -0.577350 0.645561 -0.499918
vn -0.577350 0.645561 -0.499918
vn -0.577350 0.645561 -0.499918
vn -0.577350 0.645561 -0.499918
vn -0.577350 0.645561 -0.499918
vn 0.577350 0.645561 -0.499918
vn 0.577350 0.645561 -0.499918
vn 0.577350 0.645561 -0.499918
vn 0.577350 0.645561 -0.499918
vn 0.577350 0.645561 -0.499918
vn 0.577350 0.645561 -0.499918
vn 0.577350 0.645561 -0.499918
vn 0.577350 0.645561 -0.499918
vn 0.577351 0.645560 -0.499918
vn 0.000000 -0.126133 0.992013
vn 0.000000 -0.126131 0.992014
vn 0.000000 -0.126132 0.992014
vn 0.000000 -0.126131 0.992014
vn 0.000000 -0.126131 0.992014
vn 0.000000 -0.126131 0.992014
vn 0.000000 -0.126132 0.992014
vn 0.000000 -0.126130 0.992014
vn 0.000000 -0.126131 0.992014
vn 0.000000 -0.126131 0.992014
vn 0.000000 -0.126131 0.992014
vn 0.000000 -0.126130 0.992014
vn -0.828245 0.064952 -0.556589
vn -0.828245 0.064951 -0.556589
vn -0.828245 0.064951 -0.556589
vn -0.828246 0.064951 -0.556588
vn -0.828245 0.064952 -0.556589
vn -0.828245 0.064951 -0.556589
vn -0.828245 0.064951 -0.556589
vn -0.828245 0.064952 -0.556589
vn -0.828245 0.064951 -0.556589
vn -0.828245 0.064951 -0.556589
vn -0.828245 0.064952 -0.556589
vn -0.828245 0.064952 -0.556589
vn -0.828245 0.064951 -0.556589
vn -0.828245 0.064951 -0.556589
vn 0.805795 -0.547509 -0.225673
vn 0.805795 -0.547509 -0.225673
vn 0.805795 -0.547509 -0.225673
vn 0.805796 -0.547508 -0.225673
vn 0.805795 -0.547509 -0.225673
vn 0.805795 -0.547509 -0.225673
vn 0.805795 -0.547509 -0.225673
vn 0.805795 -0.547509 -0.225673
vn 0.805795 -0.547509 -0.225673
vn 0.805795 -0.547509 -0.225673
vn 0.805794 -0.547511 -0.225673
vn 0.805795 -0.547509 -0.225673
vn 0.805795 -0.547508 -0.225673
vn 0.805795 -0.547508 -0.225673
vn 0.805795 -0.547508 -0.225673
vn 0.158793 -0.672909 0.722480
vn 0.158793 -0.672909 0.722481
vn 0.158794 -0.672909 0.722480
vn 0.158793 -0.672909 0.722481
vn 0.158792 -0.672909 0.722481
vn 0.158793 -0.672909 0.722480
vn 0.158793 -0.672909 0.722481
vn 0.150580 0.472510 0.868366
vn 0.150580 0.472510 0.868366
vn 0.150580 0.472509 0.868367
vn 0.150579 0.472509 0.868367
vn 0.150580 0.472509 0.868367
vn 0.150580 0.472510 0.868367
vn 0.150579 0.472509 0.868367
vn 0.797583 0.597910 -0.079787
vn 0.797583 0.597910 -0.079787
vn 0.797583 0.597910 -0.079787
vn 0.797583 0.597909 -0.079787
vn 0.797583 0.597910 -0.079787
vn 0.797583 0.597909 -0.079787
vn 0.797583 0.597910 -0.079787
vn 0.797583 0.597910 -0.079787
vn 0.797583 0.597910 -0.079787
vn 0.797583 0.597910 -0.079787
vn 0.797583 0.597910 -0.079787
vn 0.797583 0.597909 -0.079787
vn 0.797583 0.597910 -0.079787
vn 0.797583 0.597910 -0.079787
vn -0.752945 -0.458125 0.472436
vn -0.667109 -0.472416 0.576010
vn -0.694423 -0.456868 0.555921
vn -0.752945 0.325322 0.572048
vn -0.694423 0.303215 0.652563
vn -0.667109 0.313241 0.675904
vn -0.482421 -0.509795 0.712306
vn -0.533000 -0.538597 0.652553
vn -0.448076 -0.513303 0.731948
vn -0.482421 0.315323 0.817216
vn -0.533000 0.358162 0.766571
vn -0.448076 0.313803 0.837111
vn -0.397687 0.265541 0.878256
vn -0.397688 -0.476872 0.783860
vn -0.304153 -0.474099 0.826270
vn -0.304152 0.252243 0.918621
vn 0.059241 -0.125909 0.990271
vn -0.257208 -0.151320 0.954435
vn -0.234856 -0.069945 0.969511
vn -0.394557 -0.523765 0.754980
vn -0.425895 -0.520397 0.740136
vn -0.354384 -0.428085 0.831357
vn -0.295070 -0.268787 0.916890
vn -0.318873 -0.323880 0.890742
vn -0.240400 -0.082050 0.967200
vn -0.282446 -0.221552 0.933348
vn -0.265806 -0.193047 0.944500
vn -0.225096 -0.047293 0.973188
vn -0.219381 -0.012889 0.975554
vn -0.249649 0.024432 0.968028
vn -0.217152 0.001789 0.976136
vn -0.207140 0.026770 0.977945
vn -0.293373 -0.332646 0.896258
vn -0.289462 -0.299562 0.909106
vn -0.286862 -0.270096 0.919107
vn -0.285911 -0.244145 0.926633
vn -0.282306 -0.062962 0.957256
vn -0.287013 -0.033560 0.957339
vn -0.317392 0.120397 0.940621
vn -0.354384 0.206420 0.912032
vn -0.425895 0.318621 0.846814
vn -0.394556 0.318168 0.862030
vn -0.289221 0.483937 0.825928
vn 0.175049 0.071705 0.981945
vn 0.099864 0.012439 0.994923
vn -0.289221 -0.675224 0.678545
vn -0.008145 -0.476019 0.879397
vn -0.019760 -0.489720 0.871656
vn 0.289221 -0.675223 0.678546
vn 0.001487 -0.175534 0.984472
vn 0.005113 -0.475056 0.879941
vn 0.289220 0.483936 0.825929
vn -0.043246 -0.072870 0.996403
vn -0.396764 -0.164259 0.903104
vn -0.571692 0.201097 0.795442
vn -0.360509 -0.109744 0.926277
vn -0.363801 -0.105208 0.925516
vn -0.571694 -0.393754 0.719808
vn -0.362668 -0.127142 0.923205
vn -0.359974 -0.122761 0.924851
vn 0.571694 -0.393754 0.719809
vn 0.351012 -0.126304 0.927814
vn 0.362247 -0.126402 0.923472
vn 0.571693 0.201098 0.795441
vn 0.421288 -0.019792 0.906711
vn 0.421898 -0.034138 0.906000
vn 0.000000 -0.126131 0.992014
vn 0.007572 -0.126127 0.991985
vn 0.011106 -0.126123 0.991952
vn 0.007898 -0.122581 0.992427
vn 0.003794 -0.127086 0.991884
vn 0.000000 -0.126132 0.992013
vn -0.020944 -0.141625 0.989699
vn 0.001145 -0.109008 0.994040
vn -0.002848 -0.068345 0.997658
vn -0.075859 -0.134219 0.988044
vn 0.036211 -0.127566 0.991169
vn 0.248918 -0.152916 0.956377
vn 0.752945 0.325322 0.572049
vn 0.646722 0.341053 0.682227
vn 0.669554 0.326692 0.667060
vn 0.752945 -0.458125 0.472436
vn 0.684441 -0.466610 0.560193
vn 0.655786 -0.486311 0.577448
vn 0.475167 -0.519020 0.710517
vn 0.536399 -0.547918 0.641920
vn 0.434767 -0.520192 0.735104
vn 0.388487 -0.473996 0.790193
vn 0.307009 -0.484606 0.819087
vn -0.076244 -0.138074 0.987483
vn 0.285245 0.101564 0.953058
vn 0.224009 -0.173141 0.959084
vn 0.467290 0.330058 0.820184
vn 0.540625 0.378775 0.751168
vn 0.428236 0.324118 0.843541
vn 0.379794 0.258809 0.888130
vn 0.310390 0.270861 0.911204
vn 0.396436 0.334398 0.854995
vn 0.418474 0.326879 0.847366
vn 0.349334 0.216745 0.911585
vn 0.295878 0.042080 0.954298
vn 0.310084 0.124378 0.942538
vn 0.271445 -0.007359 0.962426
vn 0.232400 -0.164777 0.958561
vn 0.258418 -0.043613 0.965048
vn 0.219042 -0.183867 0.958235
vn 0.211997 -0.227905 0.950324
vn 0.249569 -0.282470 0.926243
vn 0.212068 -0.239755 0.947388
vn 0.202052 -0.264382 0.943015
vn 0.192929 -0.289376 0.937571
vn 0.284609 0.095070 0.953918
vn 0.280735 0.059539 0.957937
vn 0.278240 0.028547 0.960087
vn 0.277410 -0.002184 0.960749
vn 0.274889 -0.180126 0.944453
vn 0.279945 -0.210068 0.936751
vn 0.312878 -0.354045 0.881340
vn 0.349403 -0.429258 0.832860
vn 0.422067 -0.524227 0.739625
vn 0.398675 -0.533206 0.746156
s 1
g pSphere2
usemtl initialShadingGroup
f 4/4/1 5/5/2 3/3/3
f 14/14/4 1/1/5 13/13/6
f 5/5/2 6/6/7 3/3/3
f 3/3/3 6/6/7 2/2/8
f 6/6/7 7/7/9 2/2/8
f 7/7/9 8/8/10 2/2/8
f 8/8/10 9/9/11 2/2/8
f 13/13/6 1/1/5 12/12/12
f 1/1/5 2/2/8 12/12/12
f 12/12/12 2/2/8 11/11/13
f 11/11/13 2/2/8 10/10/14
f 2/2/8 9/9/11 10/10/14
s 3
f 14/16/15 15/17/16 1/15/17
f 15/17/16 16/18/18 1/15/17
f 16/18/18 17/19/19 1/15/17
f 19/21/20 1/15/17 18/20/21
f 1/15/17 17/19/19 18/20/21
s 4
f 1/23/22 19/24/23 2/22/24
f 19/24/23 20/25/25 2/22/24
f 20/25/25 21/26/26 2/22/24
f 21/26/26 22/27/27 2/22/24
f 22/27/27 23/28/28 2/22/24
f 23/28/28 24/29/29 2/22/24
f 24/29/29 25/30/30 2/22/24
f 25/30/30 26/31/31 2/22/24
f 26/31/31 27/32/32 2/22/24
f 30/35/33 2/22/24 29/34/34
f 29/34/34 2/22/24 28/33/35
f 2/22/24 27/32/32 28/33/35
s 6
f 3/3/36 2/22/37 41/46/38
f 41/46/38 2/22/37 40/45/39
f 40/45/39 2/22/37 39/44/40
f 39/44/40 2/22/37 38/43/41
f 38/43/41 2/22/37 37/42/42
f 37/42/42 2/22/37 36/41/43
f 36/41/43 2/22/37 35/40/44
f 35/40/44 2/22/37 34/39/45
f 30/35/46 31/36/47 2/22/37
f 34/39/45 2/22/37 33/38/48
f 31/36/47 32/37/49 2/22/37
f 2/22/37 32/37/49 33/38/48
s 8
f 4/47/50 3/3/51 45/51/52
f 45/51/52 3/3/51 44/50/53
f 44/50/53 3/3/51 43/49/54
f 41/46/55 42/48/56 3/3/51
f 3/3/51 42/48/56 43/49/54
s 9
f 47/53/57 48/54/58 46/52/59
f 51/57/60 46/52/59 50/56/61
f 48/54/58 49/55/62 46/52/59
f 46/52/59 49/55/62 50/56/61
s 11
f 46/58/63 51/59/64 58/66/65
f 51/59/64 52/60/66 58/66/65
f 57/65/67 58/66/65 56/64/68
f 56/64/68 58/66/65 55/63/69
f 52/60/66 53/61/70 58/66/65
f 55/63/69 58/66/65 54/62/71
f 53/61/70 54/62/71 58/66/65
s 13
f 59/67/72 60/68/73 58/66/74
f 60/68/73 61/69/75 58/66/74
f 46/74/76 58/66/74 47/73/77
f 47/73/77 58/66/74 64/72/78
f 61/69/75 62/70/79 58/66/74
f 64/72/78 58/66/74 63/71/80
f 62/70/79 63/71/80 58/66/74
s 15
f 65/75/81 57/76/82 68/80/83
f 56/77/84 66/78/85 57/76/82
f 66/78/85 67/79/86 57/76/82
f 57/76/82 67/79/86 68/80/83
s 17
f 57/65/87 65/81/88 58/66/89
f 65/81/88 69/82/90 58/66/89
f 74/87/91 58/66/89 73/86/92
f 73/86/92 58/66/89 72/85/93
f 69/82/90 70/83/94 58/66/89
f 72/85/93 58/66/89 71/84/95
f 70/83/94 71/84/95 58/66/89
s 19
f 74/87/96 75/88/97 58/66/98
f 75/88/97 76/89/99 58/66/98
f 59/67/100 58/66/98 80/93/101
f 80/93/101 58/66/98 79/92/102
f 76/89/99 77/90/103 58/66/98
f 79/92/102 58/66/98 78/91/104
f 77/90/103 78/91/104 58/66/98
s 21
f 60/94/105 59/95/106 83/99/107
f 80/96/108 81/97/109 59/95/106
f 81/97/109 82/98/110 59/95/106
f 59/95/106 82/98/110 83/99/107
s 23
f 75/100/111 74/87/112 86/104/113
f 73/101/114 84/102/115 74/87/112
f 84/102/115 85/103/116 74/87/112
f 74/87/112 85/103/116 86/104/113
s 25
f 88/106/117 89/107/118 87/105/119
f 98/116/120 99/117/121 97/115/122
f 89/107/118 90/108/123 87/105/119
f 87/105/119 90/108/123 100/118/124
f 90/108/123 91/109/125 100/118/124
f 91/109/125 92/110/126 100/118/124
f 92/110/126 93/111/127 100/118/124
f 97/115/122 99/117/121 96/114/128
f 99/117/121 100/118/124 96/114/128
f 96/114/128 100/118/124 95/113/129
f 95/113/129 100/118/124 94/112/130
f 93/111/127 94/112/130 100/118/124
s 27
f 87/119/131 100/120/132 113/133/133
f 113/133/133 100/120/132 112/132/134
f 112/132/134 100/120/132 111/131/135
f 111/131/135 100/120/132 110/130/136
f 110/130/136 100/120/132 109/129/137
f 109/129/137 100/120/132 108/128/138
f 108/128/138 100/120/132 107/127/139
f 107/127/139 100/120/132 106/126/140
f 101/121/141 102/122/142 100/120/132
f 102/122/142 103/123/143 100/120/132
f 106/126/140 100/120/132 105/125/144
f 103/123/143 104/124/145 100/120/132
f 100/120/132 104/124/145 105/125/144
s 29
f 88/134/146 87/135/147 117/140/148
f 117/140/148 87/135/147 116/139/149
f 116/139/149 87/135/147 115/138/150
f 113/136/151 114/137/152 87/135/147
f 87/135/147 114/137/152 115/138/150
s 30
f 98/141/153 118/142/154 99/117/155
f 118/142/154 119/143/156 99/117/155
f 119/143/156 120/144/157 99/117/155
f 122/146/158 99/117/155 121/145/159
f 99/117/155 120/144/157 121/145/159
s 31
f 99/117/160 122/146/161 100/120/162
f 122/146/161 123/147/163 100/120/162
f 123/147/163 124/148/164 100/120/162
f 124/148/164 125/149/165 100/120/162
f 125/149/165 126/150/166 100/120/162
f 126/150/166 127/151/167 100/120/162
f 127/151/167 128/152/168 100/120/162
f 128/152/168 129/153/169 100/120/162
f 129/153/169 130/154/170 100/120/162
f 101/121/171 100/120/162 132/156/172
f 132/156/172 100/120/162 131/155/173
f 100/120/162 130/154/170 131/155/173
s 33
f 4/47/174 45/51/175 5/5/176
f 14/14/177 13/13/178 15/17/179
f 5/5/176 45/51/175 6/6/180
f 45/51/175 44/50/181 6/6/180
f 44/50/181 43/49/182 6/6/180
f 13/13/178 12/12/183 15/17/179
f 15/17/179 12/12/183 16/18/184
f 16/18/184 12/12/183 17/19/185
f 12/12/183 11/11/186 17/19/185
f 6/6/180 43/49/182 7/7/187
f 43/49/182 42/48/188 7/7/187
f 17/19/185 11/11/186 18/20/189
f 30/35/190 29/34/191 31/36/192
f 42/48/188 41/46/193 7/7/187
f 41/46/193 40/45/194 7/7/187
f 40/45/194 39/44/195 7/7/187
f 7/7/187 39/44/195 8/8/196
f 39/44/195 38/43/197 8/8/196
f 8/8/196 38/43/197 9/9/198
f 38/43/197 37/42/199 9/9/198
f 37/42/199 36/41/200 9/9/198
f 36/41/200 35/40/201 9/9/198
f 35/40/201 34/39/202 9/9/198
f 9/9/198 34/39/202 10/10/203
f 34/39/202 33/38/204 10/10/203
f 33/38/204 32/37/205 10/10/203
f 32/37/205 31/36/192 10/10/203
f 31/36/192 29/34/191 10/10/203
f 29/34/191 28/33/206 10/10/203
f 28/33/206 27/32/207 10/10/203
f 27/32/207 26/31/208 10/10/203
f 26/31/208 25/30/209 10/10/203
f 25/30/209 24/29/210 10/10/203
f 24/29/210 23/28/211 10/10/203
f 23/28/211 22/27/212 10/10/203
f 22/27/212 21/26/213 10/10/203
f 10/10/203 21/26/213 11/11/186
f 21/26/213 20/25/214 11/11/186
f 20/25/214 19/21/215 11/11/186
f 19/21/215 18/20/189 11/11/186
s 36
f 47/73/216 64/72/217 48/54/218
f 75/100/219 86/104/220 76/89/221
f 73/86/222 72/85/223 84/102/224
f 51/57/225 50/56/226 52/60/227
f 60/94/228 83/99/229 61/69/230
f 80/93/231 79/92/232 81/97/233
f 65/75/234 68/80/235 69/82/236
f 56/64/237 55/63/238 66/78/239
f 82/98/240 81/97/233 83/99/229
f 83/99/229 81/97/233 61/69/230
f 81/97/233 79/92/232 61/69/230
f 61/69/230 79/92/232 62/70/241
f 79/92/232 78/91/242 62/70/241
f 62/70/241 78/91/242 63/71/243
f 78/91/242 77/90/244 63/71/243
f 85/103/245 84/102/224 86/104/220
f 86/104/220 84/102/224 76/89/221
f 84/102/224 72/85/223 76/89/221
f 76/89/221 72/85/223 77/90/244
f 77/90/244 72/85/223 63/71/243
f 72/85/223 71/84/246 63/71/243
f 71/84/246 70/83/247 63/71/243
f 63/71/243 70/83/247 64/72/217
f 64/72/217 70/83/247 48/54/218
f 48/54/218 70/83/247 49/55/248
f 49/55/248 70/83/247 50/56/226
f 50/56/226 70/83/247 52/60/227
f 52/60/227 70/83/247 53/61/249
f 53/61/249 70/83/247 54/62/250
f 70/83/247 69/82/236 54/62/250
f 69/82/236 68/80/235 54/62/250
f 68/80/235 67/79/251 54/62/250
f 54/62/250 67/79/251 55/63/238
f 67/79/251 66/78/239 55/63/238
s 44
f 88/134/252 117/140/253 89/107/254
f 98/116/255 97/115/256 118/142/257
f 97/115/256 96/114/258 118/142/257
f 118/142/257 96/114/258 119/143/259
f 119/143/259 96/114/258 120/144/260
f 96/114/258 95/113/261 120/144/260
f 120/144/260 95/113/261 121/145/262
f 101/121/263 132/156/264 102/122/265
f 89/107/254 117/140/253 90/108/266
f 117/140/253 116/139/267 90/108/266
f 116/139/267 115/138/268 90/108/266
f 90/108/266 115/138/268 91/109/269
f 115/138/268 114/137/270 91/109/269
f 114/137/270 113/133/271 91/109/269
f 113/133/271 112/132/272 91/109/269
f 112/132/272 111/131/273 91/109/269
f 91/109/269 111/131/273 92/110/274
f 111/131/273 110/130/275 92/110/274
f 110/130/275 109/129/276 92/110/274
f 92/110/274 109/129/276 93/111/277
f 109/129/276 108/128/278 93/111/277
f 108/128/278 107/127/279 93/111/277
f 107/127/279 106/126/280 93/111/277
f 93/111/277 106/126/280 94/112/281
f 106/126/280 105/125/282 94/112/281
f 105/125/282 104/124/283 94/112/281
f 104/124/283 103/123/284 94/112/281
f 103/123/284 102/122/265 94/112/281
f 102/122/265 132/156/264 94/112/281
f 132/156/264 131/155/285 94/112/281
f 131/155/285 130/154/286 94/112/281
f 130/154/286 129/153/287 94/112/281
f 129/153/287 128/152/288 94/112/281
f 128/152/288 127/151/289 94/112/281
f 127/151/289 126/150/290 94/112/281
f 126/150/290 125/149/291 94/112/281
f 125/149/291 124/148/292 94/112/281
f 94/112/281 124/148/292 95/113/261
f 124/148/292 123/147/293 95/113/261
f 123/147/293 122/146/294 95/113/261
f 122/146/294 121/145/262 95/113/261
