# This file uses centimeters as units for non-parametric coordinates.

mtllib Bonus_invincible.mtl
g default
v -0.398722 0.023770 -0.233118
v -0.013991 0.650399 0.444612
v -0.398722 1.426689 -0.054743
v -0.608630 1.084803 -0.424510
v -0.563003 1.073295 -0.355048
v -0.500221 1.007754 -0.265788
v -0.446600 0.896039 -0.196639
v -0.440031 0.872416 -0.189432
v -0.424999 0.730341 -0.184129
v -0.440031 0.594113 -0.224816
v -0.446600 0.573045 -0.237707
v -0.500221 0.482189 -0.332611
v -0.563003 0.441069 -0.435433
v -0.608629 0.447311 -0.505564
v -0.535511 0.377411 -0.453026
v -0.517568 0.367095 -0.443865
v -0.340914 0.284993 -0.364286
v -0.310615 0.278003 -0.354507
v -0.210732 0.261415 -0.325792
v -0.182780 0.308702 -0.265660
v -0.130454 0.391603 -0.187863
v -0.086187 0.458356 -0.142945
v -0.068569 0.484730 -0.126258
v 0.001423 0.585663 -0.083759
v 0.005725 0.591809 -0.081502
v 0.030981 0.626970 -0.073956
v 0.048814 0.651694 -0.069264
v 0.063078 0.671373 -0.066113
v 0.077264 0.690842 -0.063604
v 0.094744 0.714716 -0.061238
v 0.077264 0.738422 -0.057554
v 0.063078 0.757900 -0.055111
v 0.048814 0.777741 -0.053238
v 0.030981 0.802852 -0.051593
v 0.005725 0.838783 -0.050100
v 0.001423 0.845298 -0.050747
v -0.068569 0.953654 -0.066636
v -0.086187 0.983365 -0.076192
v -0.130454 1.059236 -0.102976
v -0.182780 1.158966 -0.157552
v -0.210732 1.219797 -0.203938
v -0.310614 1.210922 -0.235890
v -0.340914 1.206602 -0.247107
v -0.517567 1.147027 -0.344699
v -0.535510 1.139331 -0.356151
v 0.005364 0.037393 -0.340265
v -0.250102 0.291562 -0.313426
v -0.160465 0.247293 -0.317132
v 0.005365 0.221529 -0.316853
v 0.171194 0.246404 -0.310134
v 0.260831 0.290192 -0.302645
v 0.285722 0.353654 -0.249899
v 0.287635 0.356620 -0.248261
v 0.391061 0.461007 -0.230451
v 0.401009 0.467737 -0.232922
v 0.476627 0.503734 -0.270867
v 0.712311 0.736956 -0.236160
v -0.009672 0.649685 0.450224
v -0.701582 0.740750 -0.265994
v -0.465898 0.506263 -0.290755
v -0.392142 0.469865 -0.249658
v -0.382343 0.463082 -0.246769
v -0.278819 0.358140 -0.260213
v -0.276855 0.355163 -0.261770
v 0.476627 0.971444 -0.211399
v 0.515736 0.577622 -0.260634
v 0.542001 0.737413 -0.239754
v 0.515736 0.897346 -0.219982
v 0.401009 0.996800 -0.165654
v 0.391061 1.002697 -0.161577
v 0.287635 1.108219 -0.152698
v 0.285722 1.111501 -0.153542
v 0.260832 1.186143 -0.188728
v 0.005365 1.440313 -0.161889
v -0.250103 1.187514 -0.199509
v -0.276855 1.113010 -0.165413
v -0.278819 1.109739 -0.164650
v -0.382343 1.004772 -0.177896
v -0.392142 0.998928 -0.182390
v -0.465898 0.973973 -0.231287
v -0.505007 0.900084 -0.241520
v -0.531271 0.740293 -0.262400
v -0.505007 0.580360 -0.282172
v 0.171194 1.230413 -0.185022
v 0.005365 1.256177 -0.185301
v -0.160465 1.231302 -0.192020
v 0.396916 0.020408 -0.222703
v 0.613517 0.424342 -0.476032
v 0.569462 0.419233 -0.413928
v 0.503249 0.461890 -0.313676
v 0.447095 0.554808 -0.220863
v 0.434328 0.595037 -0.197138
v 0.420528 0.727187 -0.159320
v 0.437667 0.865879 -0.164711
v 0.449553 0.904825 -0.176307
v 0.507135 1.015307 -0.243228
v 0.574103 1.080262 -0.329781
v 0.619273 1.091042 -0.392696
v 0.406978 1.423303 -0.044422
v -0.006625 0.651984 0.439314
v -0.093583 0.716716 -0.065157
v -0.092509 0.715222 -0.065223
v -0.075200 0.691080 -0.066888
v -0.061060 0.671293 -0.068842
v -0.046753 0.651201 -0.071451
v -0.028742 0.625826 -0.075492
v -0.004897 0.592137 -0.081688
v 0.001437 0.583031 -0.084756
v 0.069939 0.483952 -0.123387
v 0.094621 0.447361 -0.145391
v 0.133527 0.389419 -0.182481
v 0.187875 0.305855 -0.258075
v 0.219442 0.255262 -0.320632
v 0.307865 0.268935 -0.342399
v 0.356976 0.279684 -0.356193
v 0.523081 0.353814 -0.423240
v 0.556864 0.372509 -0.438830
v 0.554378 1.138271 -0.336803
v 0.528860 1.149138 -0.321994
v 0.355603 1.207649 -0.235662
v 0.313540 1.213870 -0.222133
v 0.225761 1.222245 -0.198187
v 0.192973 1.157307 -0.149707
v 0.137234 1.058172 -0.097372
v 0.090491 0.982051 -0.072218
v 0.072576 0.953280 -0.063657
v 0.001431 0.846986 -0.050932
v -0.004286 0.838604 -0.050338
v -0.028804 0.804532 -0.052788
v -0.047136 0.779283 -0.055225
v -0.061852 0.759228 -0.057754
v -0.076531 0.739448 -0.060875
vt 0.500000 0.000000
vt 0.750000 0.250000
vt 0.500000 0.500000
vt 0.363601 0.363601
vt 0.393249 0.362662
vt 0.434045 0.343655
vt 0.468888 0.307557
vt 0.473157 0.299594
vt 0.482925 0.250000
vt 0.473157 0.200406
vt 0.468888 0.192442
vt 0.434045 0.156344
vt 0.393249 0.137337
vt 0.363601 0.136399
vt 0.250000 0.500000
vt 0.318199 0.500000
vt 0.312097 0.519936
vt 0.312154 0.526584
vt 0.317143 0.597034
vt 0.319611 0.610938
vt 0.329216 0.658433
vt 0.625000 0.500000
vt 0.750000 0.500000
vt 0.670784 0.658433
vt 0.662168 0.654360
vt 0.644552 0.659735
vt 0.628755 0.672094
vt 0.622417 0.677458
vt 0.596218 0.707660
vt 0.594593 0.709649
vt 0.584806 0.723459
vt 0.577868 0.733449
vt 0.572294 0.741664
vt 0.566723 0.750067
vt 0.559827 0.760693
vt 0.558244 0.750067
vt 0.556875 0.741664
vt 0.555407 0.733449
vt 0.553464 0.723459
vt 0.550582 0.709650
vt 0.549951 0.707660
vt 0.538855 0.677458
vt 0.535198 0.672094
vt 0.525580 0.659735
vt 0.510651 0.654361
vt 0.500000 0.658433
vt 0.431800 0.500000
vt 0.485858 0.610938
vt 0.481374 0.597034
vt 0.451138 0.526585
vt 0.447871 0.519937
vt 0.500000 0.000000
vt 0.590342 0.090342
vt 0.558643 0.074650
vt 0.500000 0.065626
vt 0.441357 0.074650
vt 0.409658 0.090342
vt 0.250000 0.500000
vt 0.295171 0.500000
vt 0.315215 0.530958
vt 0.315986 0.531813
vt 0.335096 0.533441
vt 0.335600 0.530958
vt 0.333327 0.500000
vt 0.375000 0.500000
vt 0.500000 1.000000
vt 0.625000 0.500000
vt 0.666673 0.500000
vt 0.664400 0.530958
vt 0.664904 0.533441
vt 0.684014 0.531813
vt 0.684785 0.530958
vt 0.704829 0.500000
vt 0.750000 0.500000
vt 0.333346 0.333346
vt 0.250000 0.250000
vt 0.333346 0.166654
vt 0.319516 0.193025
vt 0.310228 0.250000
vt 0.319516 0.306975
vt 0.416673 0.500000
vt 0.429879 0.530958
vt 0.431625 0.533441
vt 0.449921 0.531813
vt 0.450263 0.530958
vt 0.454829 0.500000
vt 0.500000 0.500000
vt 0.545171 0.500000
vt 0.549737 0.530958
vt 0.550079 0.531813
vt 0.568375 0.533440
vt 0.570121 0.530958
vt 0.583327 0.500000
vt 0.666654 0.166654
vt 0.750000 0.250000
vt 0.666654 0.333346
vt 0.680484 0.306975
vt 0.689772 0.250000
vt 0.680484 0.193025
vt 0.590342 0.409658
vt 0.409658 0.409658
vt 0.441357 0.425350
vt 0.500000 0.434374
vt 0.558643 0.425350
vt 0.500000 0.000000
vt 0.630924 0.130923
vt 0.603956 0.131789
vt 0.563204 0.151051
vt 0.528394 0.187635
vt 0.520395 0.202770
vt 0.511360 0.250769
vt 0.521251 0.299214
vt 0.528361 0.312387
vt 0.563153 0.348297
vt 0.603895 0.367389
vt 0.631520 0.368480
vt 0.500000 0.500000
vt 0.250000 0.250000
vt 0.250000 0.500000
vt 0.375000 0.500000
vt 0.439498 0.757994
vt 0.439067 0.757317
vt 0.432154 0.746661
vt 0.426541 0.738192
vt 0.420898 0.729874
vt 0.413839 0.719706
vt 0.404542 0.706581
vt 0.402155 0.703661
vt 0.376655 0.674259
vt 0.367936 0.666889
vt 0.354333 0.656230
vt 0.336711 0.650822
vt 0.327558 0.655116
vt 0.684538 0.500000
vt 0.750000 0.500000
vt 0.672442 0.655116
vt 0.680783 0.613659
vt 0.684683 0.591498
vt 0.689119 0.526900
vt 0.689182 0.514753
vt 0.565760 0.500000
vt 0.551952 0.517450
vt 0.547414 0.526786
vt 0.518375 0.595077
vt 0.512249 0.614221
vt 0.500000 0.655650
vt 0.488573 0.651337
vt 0.473653 0.656809
vt 0.463946 0.669371
vt 0.460388 0.674645
vt 0.449442 0.704643
vt 0.448626 0.707237
vt 0.445878 0.720484
vt 0.443913 0.730646
vt 0.442422 0.739048
vt 0.441024 0.747683
vn -0.839025 -0.068628 0.539748
vn -0.839025 -0.068627 0.539747
vn -0.839025 -0.068626 0.539747
vn -0.839025 -0.068626 0.539747
vn -0.839026 -0.068627 0.539747
vn -0.839026 -0.068626 0.539747
vn -0.839026 -0.068626 0.539747
vn -0.839026 -0.068627 0.539747
vn -0.839026 -0.068627 0.539747
vn -0.839026 -0.068627 0.539747
vn -0.839026 -0.068627 0.539747
vn -0.839026 -0.068627 0.539747
vn -0.839026 -0.068626 0.539746
vn -0.839026 -0.068625 0.539747
vn 0.170279 -0.472020 -0.864987
vn 0.170280 -0.472020 -0.864987
vn 0.170280 -0.472019 -0.864987
vn 0.170280 -0.472019 -0.864987
vn 0.170280 -0.472019 -0.864987
vn 0.170280 -0.472018 -0.864988
vn 0.170280 -0.472018 -0.864987
vn 0.798543 -0.594217 0.096098
vn 0.798543 -0.594217 0.096099
vn 0.798543 -0.594217 0.096099
vn 0.798544 -0.594216 0.096099
vn 0.798544 -0.594217 0.096099
vn 0.798543 -0.594217 0.096098
vn 0.798543 -0.594217 0.096099
vn 0.798543 -0.594217 0.096099
vn 0.798543 -0.594217 0.096099
vn 0.798543 -0.594217 0.096099
vn 0.798543 -0.594217 0.096099
vn 0.798543 -0.594217 0.096098
vn 0.798543 -0.594217 0.096098
vn 0.798543 -0.594217 0.096099
vn 0.798544 0.551262 0.241741
vn 0.798543 0.551262 0.241741
vn 0.798543 0.551262 0.241741
vn 0.798543 0.551261 0.241742
vn 0.798543 0.551262 0.241741
vn 0.798543 0.551262 0.241742
vn 0.798543 0.551262 0.241742
vn 0.798544 0.551262 0.241742
vn 0.798543 0.551262 0.241742
vn 0.798543 0.551262 0.241742
vn 0.798543 0.551262 0.241742
vn 0.798543 0.551262 0.241742
vn 0.798544 0.551261 0.241741
vn 0.798543 0.551262 0.241741
vn 0.170279 0.673461 -0.719344
vn 0.170280 0.673460 -0.719344
vn 0.170279 0.673460 -0.719344
vn 0.170280 0.673459 -0.719345
vn 0.170280 0.673460 -0.719345
vn 0.170281 0.673460 -0.719344
vn 0.170280 0.673460 -0.719344
vn 0.021265 0.126102 -0.991789
vn 0.021265 0.126102 -0.991789
vn 0.021265 0.126102 -0.991789
vn 0.021265 0.126102 -0.991789
vn 0.021265 0.126102 -0.991789
vn 0.021265 0.126102 -0.991789
vn 0.564942 -0.647093 0.511968
vn 0.564942 -0.647093 0.511968
vn 0.564942 -0.647093 0.511968
vn 0.564942 -0.647094 0.511968
vn 0.564942 -0.647093 0.511968
vn 0.564942 -0.647093 0.511968
vn 0.564942 -0.647093 0.511968
vn 0.564942 -0.647093 0.511968
vn 0.564942 -0.647093 0.511968
vn -0.589497 -0.643996 0.487609
vn -0.589497 -0.643996 0.487609
vn -0.589497 -0.643996 0.487609
vn -0.589497 -0.643996 0.487609
vn -0.589497 -0.643996 0.487609
vn -0.589497 -0.643996 0.487609
vn -0.589498 -0.643996 0.487609
vn -0.589498 -0.643995 0.487609
vn -0.589498 -0.643995 0.487609
vn 0.021265 0.126102 -0.991789
vn 0.021265 0.126102 -0.991789
vn 0.021265 0.126102 -0.991789
vn 0.021265 0.126102 -0.991789
vn 0.021265 0.126102 -0.991789
vn 0.021265 0.126102 -0.991789
vn 0.564942 0.498386 0.657611
vn 0.564942 0.498386 0.657611
vn 0.564942 0.498386 0.657611
vn 0.564942 0.498386 0.657611
vn 0.564942 0.498386 0.657611
vn 0.564942 0.498386 0.657611
vn 0.564942 0.498385 0.657611
vn 0.564942 0.498386 0.657611
vn 0.564942 0.498386 0.657611
vn -0.589497 0.501483 0.633252
vn -0.589497 0.501483 0.633252
vn -0.589497 0.501483 0.633252
vn -0.589497 0.501483 0.633252
vn -0.589497 0.501483 0.633252
vn -0.589497 0.501483 0.633252
vn -0.589497 0.501483 0.633252
vn -0.589497 0.501483 0.633252
vn -0.589498 0.501482 0.633252
vn 0.021265 0.126099 -0.991790
vn 0.021265 0.126102 -0.991789
vn 0.021265 0.126101 -0.991790
vn 0.021265 0.126102 -0.991789
vn 0.021265 0.126102 -0.991789
vn 0.021265 0.126102 -0.991789
vn 0.021265 0.126101 -0.991790
vn 0.021265 0.126102 -0.991789
vn 0.021265 0.126101 -0.991789
vn 0.021265 0.126102 -0.991789
vn 0.021265 0.126102 -0.991789
vn 0.021265 0.126102 -0.991789
vn 0.816142 -0.078605 0.572480
vn 0.816142 -0.078605 0.572480
vn 0.816142 -0.078605 0.572480
vn 0.816143 -0.078605 0.572479
vn 0.816142 -0.078605 0.572480
vn 0.816142 -0.078605 0.572480
vn 0.816142 -0.078605 0.572480
vn 0.816142 -0.078605 0.572480
vn 0.816142 -0.078606 0.572480
vn 0.816142 -0.078605 0.572480
vn 0.816142 -0.078605 0.572480
vn 0.816142 -0.078605 0.572480
vn 0.816142 -0.078606 0.572480
vn 0.816142 -0.078605 0.572480
vn -0.808905 -0.584396 0.064447
vn -0.808905 -0.584396 0.064447
vn -0.808905 -0.584396 0.064447
vn -0.808906 -0.584395 0.064447
vn -0.808905 -0.584397 0.064447
vn -0.808905 -0.584396 0.064447
vn -0.808905 -0.584396 0.064447
vn -0.808905 -0.584396 0.064447
vn -0.808905 -0.584396 0.064447
vn -0.808905 -0.584396 0.064447
vn -0.808904 -0.584398 0.064447
vn -0.808905 -0.584396 0.064447
vn -0.808905 -0.584396 0.064447
vn -0.808905 -0.584396 0.064447
vn -0.808905 -0.584396 0.064447
vn -0.141712 -0.470298 -0.871056
vn -0.141711 -0.470297 -0.871056
vn -0.141712 -0.470297 -0.871056
vn -0.141711 -0.470297 -0.871056
vn -0.141710 -0.470297 -0.871056
vn -0.141712 -0.470298 -0.871056
vn -0.141711 -0.470297 -0.871056
vn -0.133495 0.675162 -0.725490
vn -0.133494 0.675162 -0.725490
vn -0.133494 0.675162 -0.725490
vn -0.133494 0.675162 -0.725491
vn -0.133494 0.675162 -0.725490
vn -0.133494 0.675162 -0.725490
vn -0.133494 0.675161 -0.725490
vn -0.800689 0.561063 0.210013
vn -0.800689 0.561063 0.210013
vn -0.800689 0.561063 0.210013
vn -0.800690 0.561062 0.210013
vn -0.800689 0.561063 0.210013
vn -0.800689 0.561063 0.210013
vn -0.800689 0.561063 0.210013
vn -0.800689 0.561063 0.210013
vn -0.800689 0.561063 0.210013
vn -0.800689 0.561063 0.210013
vn -0.800689 0.561063 0.210013
vn -0.800690 0.561062 0.210013
vn -0.800689 0.561063 0.210013
vn -0.800689 0.561063 0.210013
vn 0.763970 -0.327357 -0.556046
vn 0.680377 -0.315048 -0.661689
vn 0.707219 -0.305095 -0.637776
vn 0.763970 0.456090 -0.456434
vn 0.707218 0.454989 -0.541135
vn 0.680376 0.470609 -0.561796
vn 0.498706 -0.316638 -0.806866
vn 0.548090 -0.359611 -0.755167
vn 0.464792 -0.315028 -0.827482
vn 0.498705 0.508479 -0.701956
vn 0.548090 0.537148 -0.641148
vn 0.464793 0.512078 -0.722318
vn 0.415412 0.475782 -0.775283
vn 0.415413 -0.266632 -0.869678
vn 0.322787 -0.253084 -0.912007
vn 0.322786 0.473258 -0.819656
vn -0.037999 0.126039 -0.991297
vn 0.277690 0.091621 -0.956292
vn 0.255443 0.174239 -0.950994
vn 0.411799 -0.319251 -0.853523
vn 0.442808 -0.319787 -0.837650
vn 0.372990 -0.207396 -0.904359
vn 0.315067 -0.031605 -0.948543
vn 0.338460 -0.091552 -0.936516
vn 0.260969 0.161927 -0.951670
vn 0.302666 0.018280 -0.952922
vn 0.286189 0.048712 -0.956934
vn 0.245702 0.197117 -0.949092
vn 0.239946 0.231034 -0.942894
vn 0.269948 0.265203 -0.925633
vn 0.237690 0.245397 -0.939832
vn 0.227651 0.270063 -0.935543
vn 0.313106 -0.098590 -0.944587
vn 0.309379 -0.063333 -0.948828
vn 0.306910 -0.032296 -0.951190
vn 0.306049 -0.005285 -0.952001
vn 0.302605 0.177807 -0.936384
vn 0.307233 0.206281 -0.929008
vn 0.336840 0.351076 -0.873662
vn 0.372990 0.427109 -0.823685
vn 0.442808 0.519231 -0.730973
vn 0.411798 0.522683 -0.746475
vn 0.305281 0.674427 -0.672274
vn -0.154487 0.315593 -0.936234
vn -0.078887 0.261259 -0.962040
vn 0.305281 -0.484734 -0.819656
vn 0.027972 -0.240856 -0.970158
vn 0.039457 -0.256089 -0.965848
vn -0.273030 -0.483181 -0.831860
vn 0.019752 0.076387 -0.996883
vn 0.014725 -0.239751 -0.970723
vn -0.273029 0.675978 -0.684477
vn 0.064452 0.178650 -0.981799
vn 0.416167 0.065876 -0.906899
vn 0.587804 0.392200 -0.707577
vn 0.380262 0.124552 -0.916454
vn 0.383525 0.128744 -0.914513
vn 0.587805 -0.202652 -0.783210
vn 0.382403 0.106933 -0.917787
vn 0.379732 0.111594 -0.918341
vn -0.555323 -0.199585 -0.807330
vn -0.331021 0.110812 -0.937094
vn -0.342345 0.109660 -0.933153
vn -0.555323 0.395268 -0.731697
vn -0.402012 0.208843 -0.891499
vn -0.402599 0.194777 -0.894414
vn 0.021265 0.126102 -0.991789
vn 0.013695 0.126118 -0.991921
vn 0.010160 0.126124 -0.991963
vn 0.013368 0.129663 -0.991468
vn 0.017473 0.125155 -0.991983
vn 0.021265 0.126100 -0.991790
vn 0.042197 0.110465 -0.992984
vn 0.020118 0.143190 -0.989491
vn 0.024077 0.183454 -0.982733
vn 0.097046 0.117074 -0.988370
vn -0.014951 0.124598 -0.992095
vn -0.228276 0.091920 -0.969248
vn -0.741579 0.460129 -0.488202
vn -0.633098 0.502643 -0.588674
vn -0.656207 0.485005 -0.578067
vn -0.741580 -0.323318 -0.587814
vn -0.671217 -0.309759 -0.673437
vn -0.642152 -0.324593 -0.694464
vn -0.458679 -0.323449 -0.827644
vn -0.521267 -0.368428 -0.769768
vn -0.417766 -0.318540 -0.850884
vn -0.370459 -0.260153 -0.891673
vn -0.288360 -0.263415 -0.920577
vn 0.097429 0.113200 -0.988784
vn -0.265348 0.337570 -0.903126
vn -0.203261 0.072949 -0.976403
vn -0.450767 0.526036 -0.721176
vn -0.525673 0.556131 -0.643729
vn -0.411213 0.526024 -0.744448
vn -0.361666 0.473820 -0.802927
vn -0.291824 0.491076 -0.820782
vn -0.379206 0.538758 -0.752292
vn -0.401380 0.529628 -0.747253
vn -0.330606 0.438881 -0.835514
vn -0.275793 0.280317 -0.919435
vn -0.290464 0.357092 -0.887759
vn -0.251060 0.234419 -0.939157
vn -0.211684 0.080938 -0.973981
vn -0.237884 0.199940 -0.950492
vn -0.198285 0.062338 -0.978160
vn -0.191291 0.017703 -0.981374
vn -0.229215 -0.041052 -0.972510
vn -0.191391 0.005495 -0.981499
vn -0.181403 -0.019469 -0.983216
vn -0.172331 -0.045055 -0.984008
vn -0.264676 0.331496 -0.905570
vn -0.260623 0.298091 -0.918269
vn -0.258000 0.268616 -0.928052
vn -0.257074 0.239026 -0.936365
vn -0.254420 0.062661 -0.965062
vn -0.259557 0.031758 -0.965205
vn -0.293265 -0.121414 -0.948290
vn -0.330603 -0.206268 -0.920954
vn -0.404962 -0.321350 -0.856002
vn -0.381414 -0.328471 -0.864078
s 1
g pSphere2
usemtl initialShadingGroup
f 4/4/1 5/5/2 3/3/3
f 14/14/4 1/1/5 13/13/6
f 5/5/2 6/6/7 3/3/3
f 3/3/3 6/6/7 2/2/8
f 6/6/7 7/7/9 2/2/8
f 7/7/9 8/8/10 2/2/8
f 8/8/10 9/9/11 2/2/8
f 13/13/6 1/1/5 12/12/12
f 1/1/5 2/2/8 12/12/12
f 12/12/12 2/2/8 11/11/13
f 11/11/13 2/2/8 10/10/14
f 2/2/8 9/9/11 10/10/14
s 3
f 14/16/15 15/17/16 1/15/17
f 15/17/16 16/18/18 1/15/17
f 16/18/18 17/19/19 1/15/17
f 19/21/20 1/15/17 18/20/21
f 1/15/17 17/19/19 18/20/21
s 4
f 1/23/22 19/24/23 2/22/24
f 19/24/23 20/25/25 2/22/24
f 20/25/25 21/26/26 2/22/24
f 21/26/26 22/27/27 2/22/24
f 22/27/27 23/28/28 2/22/24
f 23/28/28 24/29/29 2/22/24
f 24/29/29 25/30/30 2/22/24
f 25/30/30 26/31/31 2/22/24
f 26/31/31 27/32/32 2/22/24
f 30/35/33 2/22/24 29/34/34
f 29/34/34 2/22/24 28/33/35
f 2/22/24 27/32/32 28/33/35
s 6
f 3/3/36 2/22/37 41/46/38
f 41/46/38 2/22/37 40/45/39
f 40/45/39 2/22/37 39/44/40
f 39/44/40 2/22/37 38/43/41
f 38/43/41 2/22/37 37/42/42
f 37/42/42 2/22/37 36/41/43
f 36/41/43 2/22/37 35/40/44
f 35/40/44 2/22/37 34/39/45
f 30/35/46 31/36/47 2/22/37
f 34/39/45 2/22/37 33/38/48
f 31/36/47 32/37/49 2/22/37
f 2/22/37 32/37/49 33/38/48
s 8
f 4/47/50 3/3/51 45/51/52
f 45/51/52 3/3/51 44/50/53
f 44/50/53 3/3/51 43/49/54
f 41/46/55 42/48/56 3/3/51
f 3/3/51 42/48/56 43/49/54
s 9
f 47/53/57 48/54/58 46/52/59
f 51/57/60 46/52/59 50/56/61
f 48/54/58 49/55/62 46/52/59
f 46/52/59 49/55/62 50/56/61
s 11
f 46/58/63 51/59/64 58/66/65
f 51/59/64 52/60/66 58/66/65
f 57/65/67 58/66/65 56/64/68
f 56/64/68 58/66/65 55/63/69
f 52/60/66 53/61/70 58/66/65
f 55/63/69 58/66/65 54/62/71
f 53/61/70 54/62/71 58/66/65
s 13
f 59/67/72 60/68/73 58/66/74
f 60/68/73 61/69/75 58/66/74
f 46/74/76 58/66/74 47/73/77
f 47/73/77 58/66/74 64/72/78
f 61/69/75 62/70/79 58/66/74
f 64/72/78 58/66/74 63/71/80
f 62/70/79 63/71/80 58/66/74
s 15
f 65/75/81 57/76/82 68/80/83
f 56/77/84 66/78/85 57/76/82
f 66/78/85 67/79/86 57/76/82
f 57/76/82 67/79/86 68/80/83
s 17
f 57/65/87 65/81/88 58/66/89
f 65/81/88 69/82/90 58/66/89
f 74/87/91 58/66/89 73/86/92
f 73/86/92 58/66/89 72/85/93
f 69/82/90 70/83/94 58/66/89
f 72/85/93 58/66/89 71/84/95
f 70/83/94 71/84/95 58/66/89
s 19
f 74/87/96 75/88/97 58/66/98
f 75/88/97 76/89/99 58/66/98
f 59/67/100 58/66/98 80/93/101
f 80/93/101 58/66/98 79/92/102
f 76/89/99 77/90/103 58/66/98
f 79/92/102 58/66/98 78/91/104
f 77/90/103 78/91/104 58/66/98
s 21
f 60/94/105 59/95/106 83/99/107
f 80/96/108 81/97/109 59/95/106
f 81/97/109 82/98/110 59/95/106
f 59/95/106 82/98/110 83/99/107
s 23
f 75/100/111 74/87/112 86/104/113
f 73/101/114 84/102/115 74/87/112
f 84/102/115 85/103/116 74/87/112
f 74/87/112 85/103/116 86/104/113
s 25
f 88/106/117 89/107/118 87/105/119
f 98/116/120 99/117/121 97/115/122
f 89/107/118 90/108/123 87/105/119
f 87/105/119 90/108/123 100/118/124
f 90/108/123 91/109/125 100/118/124
f 91/109/125 92/110/126 100/118/124
f 92/110/126 93/111/127 100/118/124
f 97/115/122 99/117/121 96/114/128
f 99/117/121 100/118/124 96/114/128
f 96/114/128 100/118/124 95/113/129
f 95/113/129 100/118/124 94/112/130
f 93/111/127 94/112/130 100/118/124
s 27
f 87/119/131 100/120/132 113/133/133
f 113/133/133 100/120/132 112/132/134
f 112/132/134 100/120/132 111/131/135
f 111/131/135 100/120/132 110/130/136
f 110/130/136 100/120/132 109/129/137
f 109/129/137 100/120/132 108/128/138
f 108/128/138 100/120/132 107/127/139
f 107/127/139 100/120/132 106/126/140
f 101/121/141 102/122/142 100/120/132
f 102/122/142 103/123/143 100/120/132
f 106/126/140 100/120/132 105/125/144
f 103/123/143 104/124/145 100/120/132
f 100/120/132 104/124/145 105/125/144
s 29
f 88/134/146 87/135/147 117/140/148
f 117/140/148 87/135/147 116/139/149
f 116/139/149 87/135/147 115/138/150
f 113/136/151 114/137/152 87/135/147
f 87/135/147 114/137/152 115/138/150
s 30
f 98/141/153 118/142/154 99/117/155
f 118/142/154 119/143/156 99/117/155
f 119/143/156 120/144/157 99/117/155
f 122/146/158 99/117/155 121/145/159
f 99/117/155 120/144/157 121/145/159
s 31
f 99/117/160 122/146/161 100/120/162
f 122/146/161 123/147/163 100/120/162
f 123/147/163 124/148/164 100/120/162
f 124/148/164 125/149/165 100/120/162
f 125/149/165 126/150/166 100/120/162
f 126/150/166 127/151/167 100/120/162
f 127/151/167 128/152/168 100/120/162
f 128/152/168 129/153/169 100/120/162
f 129/153/169 130/154/170 100/120/162
f 101/121/171 100/120/162 132/156/172
f 132/156/172 100/120/162 131/155/173
f 100/120/162 130/154/170 131/155/173
s 33
f 4/47/174 45/51/175 5/5/176
f 14/14/177 13/13/178 15/17/179
f 5/5/176 45/51/175 6/6/180
f 45/51/175 44/50/181 6/6/180
f 44/50/181 43/49/182 6/6/180
f 13/13/178 12/12/183 15/17/179
f 15/17/179 12/12/183 16/18/184
f 16/18/184 12/12/183 17/19/185
f 12/12/183 11/11/186 17/19/185
f 6/6/180 43/49/182 7/7/187
f 43/49/182 42/48/188 7/7/187
f 17/19/185 11/11/186 18/20/189
f 30/35/190 29/34/191 31/36/192
f 42/48/188 41/46/193 7/7/187
f 41/46/193 40/45/194 7/7/187
f 40/45/194 39/44/195 7/7/187
f 7/7/187 39/44/195 8/8/196
f 39/44/195 38/43/197 8/8/196
f 8/8/196 38/43/197 9/9/198
f 38/43/197 37/42/199 9/9/198
f 37/42/199 36/41/200 9/9/198
f 36/41/200 35/40/201 9/9/198
f 35/40/201 34/39/202 9/9/198
f 9/9/198 34/39/202 10/10/203
f 34/39/202 33/38/204 10/10/203
f 33/38/204 32/37/205 10/10/203
f 32/37/205 31/36/192 10/10/203
f 31/36/192 29/34/191 10/10/203
f 29/34/191 28/33/206 10/10/203
f 28/33/206 27/32/207 10/10/203
f 27/32/207 26/31/208 10/10/203
f 26/31/208 25/30/209 10/10/203
f 25/30/209 24/29/210 10/10/203
f 24/29/210 23/28/211 10/10/203
f 23/28/211 22/27/212 10/10/203
f 22/27/212 21/26/213 10/10/203
f 10/10/203 21/26/213 11/11/186
f 21/26/213 20/25/214 11/11/186
f 20/25/214 19/21/215 11/11/186
f 19/21/215 18/20/189 11/11/186
s 36
f 47/73/216 64/72/217 48/54/218
f 75/100/219 86/104/220 76/89/221
f 73/86/222 72/85/223 84/102/224
f 51/57/225 50/56/226 52/60/227
f 60/94/228 83/99/229 61/69/230
f 80/93/231 79/92/232 81/97/233
f 65/75/234 68/80/235 69/82/236
f 56/64/237 55/63/238 66/78/239
f 82/98/240 81/97/233 83/99/229
f 83/99/229 81/97/233 61/69/230
f 81/97/233 79/92/232 61/69/230
f 61/69/230 79/92/232 62/70/241
f 79/92/232 78/91/242 62/70/241
f 62/70/241 78/91/242 63/71/243
f 78/91/242 77/90/244 63/71/243
f 85/103/245 84/102/224 86/104/220
f 86/104/220 84/102/224 76/89/221
f 84/102/224 72/85/223 76/89/221
f 76/89/221 72/85/223 77/90/244
f 77/90/244 72/85/223 63/71/243
f 72/85/223 71/84/246 63/71/243
f 71/84/246 70/83/247 63/71/243
f 63/71/243 70/83/247 64/72/217
f 64/72/217 70/83/247 48/54/218
f 48/54/218 70/83/247 49/55/248
f 49/55/248 70/83/247 50/56/226
f 50/56/226 70/83/247 52/60/227
f 52/60/227 70/83/247 53/61/249
f 53/61/249 70/83/247 54/62/250
f 70/83/247 69/82/236 54/62/250
f 69/82/236 68/80/235 54/62/250
f 68/80/235 67/79/251 54/62/250
f 54/62/250 67/79/251 55/63/238
f 67/79/251 66/78/239 55/63/238
s 44
f 88/134/252 117/140/253 89/107/254
f 98/116/255 97/115/256 118/142/257
f 97/115/256 96/114/258 118/142/257
f 118/142/257 96/114/258 119/143/259
f 119/143/259 96/114/258 120/144/260
f 96/114/258 95/113/261 120/144/260
f 120/144/260 95/113/261 121/145/262
f 101/121/263 132/156/264 102/122/265
f 89/107/254 117/140/253 90/108/266
f 117/140/253 116/139/267 90/108/266
f 116/139/267 115/138/268 90/108/266
f 90/108/266 115/138/268 91/109/269
f 115/138/268 114/137/270 91/109/269
f 114/137/270 113/133/271 91/109/269
f 113/133/271 112/132/272 91/109/269
f 112/132/272 111/131/273 91/109/269
f 91/109/269 111/131/273 92/110/274
f 111/131/273 110/130/275 92/110/274
f 110/130/275 109/129/276 92/110/274
f 92/110/274 109/129/276 93/111/277
f 109/129/276 108/128/278 93/111/277
f 108/128/278 107/127/279 93/111/277
f 107/127/279 106/126/280 93/111/277
f 93/111/277 106/126/280 94/112/281
f 106/126/280 105/125/282 94/112/281
f 105/125/282 104/124/283 94/112/281
f 104/124/283 103/123/284 94/112/281
f 103/123/284 102/122/265 94/112/281
f 102/122/265 132/156/264 94/112/281
f 132/156/264 131/155/285 94/112/281
f 131/155/285 130/154/286 94/112/281
f 130/154/286 129/153/287 94/112/281
f 129/153/287 128/152/288 94/112/281
f 128/152/288 127/151/289 94/112/281
f 127/151/289 126/150/290 94/112/281
f 126/150/290 125/149/291 94/112/281
f 125/149/291 124/148/292 94/112/281
f 94/112/281 124/148/292 95/113/261
f 124/148/292 123/147/293 95/113/261
f 123/147/293 122/146/294 95/113/261
f 122/146/294 121/145/262 95/113/261
