# Blender v2.77 (sub 0) OBJ File: ''
# www.blender.org
mtllib Bonus_invincible.mtl
o pSphere2.001
v -0.608630 1.084803 -0.424510
v -0.563003 1.073295 -0.355048
v -0.398722 1.426689 -0.054743
v -0.608629 0.447311 -0.505564
v -0.398722 0.023770 -0.233118
v -0.563003 0.441069 -0.435433
v -0.500221 1.007754 -0.265788
v -0.013991 0.650399 0.444612
v -0.446600 0.896039 -0.196639
v -0.440031 0.872416 -0.189432
v -0.424999 0.730341 -0.184129
v -0.500221 0.482189 -0.332611
v -0.446600 0.573045 -0.237707
v -0.440031 0.594113 -0.224816
v -0.535511 0.377411 -0.453026
v -0.517568 0.367095 -0.443865
v -0.340914 0.284993 -0.364286
v -0.210732 0.261415 -0.325792
v -0.310615 0.278003 -0.354507
v -0.182780 0.308702 -0.265660
v -0.130454 0.391603 -0.187863
v -0.086187 0.458356 -0.142945
v -0.068569 0.484730 -0.126258
v 0.001423 0.585663 -0.083759
v 0.005725 0.591809 -0.081502
v 0.030981 0.626970 -0.073956
v 0.048814 0.651694 -0.069264
v 0.094744 0.714716 -0.061238
v 0.077264 0.690842 -0.063604
v 0.063078 0.671373 -0.066113
v -0.210732 1.219797 -0.203938
v -0.182780 1.158966 -0.157552
v -0.130454 1.059236 -0.102976
v -0.086187 0.983365 -0.076192
v -0.068569 0.953654 -0.066636
v 0.001423 0.845298 -0.050747
v 0.005725 0.838783 -0.050100
v 0.030981 0.802852 -0.051593
v 0.077264 0.738422 -0.057554
v 0.048814 0.777741 -0.053238
v 0.063078 0.757900 -0.055111
v -0.535510 1.139331 -0.356151
v -0.517567 1.147027 -0.344699
v -0.340914 1.206602 -0.247107
v -0.310614 1.210922 -0.235890
v -0.250102 0.291562 -0.313426
v -0.160465 0.247293 -0.317132
v 0.005364 0.037393 -0.340265
v 0.260831 0.290192 -0.302645
v 0.171194 0.246404 -0.310134
v 0.005365 0.221529 -0.316853
v -0.009672 0.649685 0.450224
v 0.285722 0.353654 -0.249899
v 0.712311 0.736956 -0.236160
v 0.476627 0.503734 -0.270867
v 0.401009 0.467737 -0.232922
v 0.287635 0.356620 -0.248261
v 0.391061 0.461007 -0.230451
v -0.701582 0.740750 -0.265994
v -0.465898 0.506263 -0.290755
v -0.392142 0.469865 -0.249658
v -0.276855 0.355163 -0.261770
v -0.382343 0.463082 -0.246769
v -0.278819 0.358140 -0.260213
v 0.476627 0.971444 -0.211399
v 0.515736 0.897346 -0.219982
v 0.515736 0.577622 -0.260634
v 0.542001 0.737413 -0.239754
v 0.401009 0.996800 -0.165654
v 0.005365 1.440313 -0.161889
v 0.260832 1.186143 -0.188728
v 0.285722 1.111501 -0.153542
v 0.391061 1.002697 -0.161577
v 0.287635 1.108219 -0.152698
v -0.250103 1.187514 -0.199509
v -0.276855 1.113010 -0.165413
v -0.465898 0.973973 -0.231287
v -0.392142 0.998928 -0.182390
v -0.278819 1.109739 -0.164650
v -0.382343 1.004772 -0.177896
v -0.505007 0.580360 -0.282172
v -0.505007 0.900084 -0.241520
v -0.531271 0.740293 -0.262400
v -0.160465 1.231302 -0.192020
v 0.171194 1.230413 -0.185022
v 0.005365 1.256177 -0.185301
v 0.613517 0.424342 -0.476032
v 0.569462 0.419233 -0.413928
v 0.396916 0.020408 -0.222703
v 0.619273 1.091042 -0.392696
v 0.406978 1.423303 -0.044422
v 0.574103 1.080262 -0.329781
v 0.503249 0.461890 -0.313676
v -0.006625 0.651984 0.439314
v 0.447095 0.554808 -0.220863
v 0.434328 0.595037 -0.197138
v 0.420528 0.727187 -0.159320
v 0.507135 1.015307 -0.243228
v 0.449553 0.904825 -0.176307
v 0.437667 0.865879 -0.164711
v 0.219442 0.255262 -0.320632
v 0.187875 0.305855 -0.258075
v 0.133527 0.389419 -0.182481
v 0.094621 0.447361 -0.145391
v 0.069939 0.483952 -0.123387
v 0.001437 0.583031 -0.084756
v -0.004897 0.592137 -0.081688
v -0.028742 0.625826 -0.075492
v -0.093583 0.716716 -0.065157
v -0.092509 0.715222 -0.065223
v -0.075200 0.691080 -0.066888
v -0.046753 0.651201 -0.071451
v -0.061060 0.671293 -0.068842
v 0.556864 0.372509 -0.438830
v 0.523081 0.353814 -0.423240
v 0.356976 0.279684 -0.356193
v 0.307865 0.268935 -0.342399
v 0.554378 1.138271 -0.336803
v 0.528860 1.149138 -0.321994
v 0.355603 1.207649 -0.235662
v 0.225761 1.222245 -0.198187
v 0.313540 1.213870 -0.222133
v 0.192973 1.157307 -0.149707
v 0.137234 1.058172 -0.097372
v 0.090491 0.982051 -0.072218
v 0.072576 0.953280 -0.063657
v 0.001431 0.846986 -0.050932
v -0.004286 0.838604 -0.050338
v -0.028804 0.804532 -0.052788
v -0.047136 0.779283 -0.055225
v -0.076531 0.739448 -0.060875
v -0.061852 0.759228 -0.057754
vn -0.8390 -0.0686 0.5398
vn -0.8390 -0.0686 0.5397
vn 0.1703 -0.4720 -0.8650
vn 0.1702 -0.4720 -0.8650
vn 0.7985 -0.5942 0.0961
vn 0.7986 -0.5942 0.0961
vn 0.7985 0.5513 0.2417
vn 0.7985 0.5513 0.2418
vn 0.1703 0.6735 -0.7193
vn 0.0213 0.1261 -0.9918
vn 0.5649 -0.6471 0.5120
vn -0.5895 -0.6440 0.4876
vn 0.5649 0.4984 0.6576
vn -0.5895 0.5015 0.6333
vn -0.5894 0.5015 0.6333
vn 0.8161 -0.0786 0.5725
vn -0.8089 -0.5844 0.0644
vn -0.8089 -0.5844 0.0645
vn -0.1417 -0.4703 -0.8711
vn -0.1335 0.6752 -0.7255
vn -0.8007 0.5611 0.2100
vn -0.8007 0.5610 0.2100
vn 0.7640 -0.3274 -0.5561
vn 0.6804 -0.3150 -0.6617
vn 0.7072 -0.3051 -0.6378
vn 0.7640 0.4561 -0.4564
vn 0.7072 0.4550 -0.5411
vn 0.6804 0.4706 -0.5618
vn 0.4987 -0.3166 -0.8069
vn 0.5481 -0.3596 -0.7552
vn 0.4648 -0.3150 -0.8275
vn 0.4987 0.5085 -0.7019
vn 0.5481 0.5372 -0.6412
vn 0.4648 0.5121 -0.7223
vn 0.4154 0.4758 -0.7753
vn 0.4154 -0.2666 -0.8697
vn 0.3228 -0.2531 -0.9120
vn 0.3228 0.4733 -0.8197
vn -0.0380 0.1260 -0.9913
vn 0.2777 0.0916 -0.9563
vn 0.2554 0.1742 -0.9510
vn 0.4118 -0.3192 -0.8535
vn 0.4428 -0.3198 -0.8376
vn 0.3730 -0.2074 -0.9044
vn 0.3151 -0.0316 -0.9485
vn 0.3384 -0.0915 -0.9365
vn 0.2610 0.1619 -0.9517
vn 0.3027 0.0183 -0.9529
vn 0.2862 0.0487 -0.9569
vn 0.2457 0.1971 -0.9491
vn 0.2400 0.2310 -0.9429
vn 0.2700 0.2652 -0.9256
vn 0.2377 0.2455 -0.9398
vn 0.2276 0.2701 -0.9355
vn 0.3131 -0.0987 -0.9446
vn 0.3094 -0.0633 -0.9488
vn 0.3069 -0.0324 -0.9512
vn 0.3060 -0.0053 -0.9520
vn 0.3026 0.1778 -0.9364
vn 0.3072 0.2063 -0.9290
vn 0.3368 0.3511 -0.8737
vn 0.3730 0.4271 -0.8237
vn 0.4428 0.5192 -0.7310
vn 0.4118 0.5227 -0.7465
vn 0.3053 0.6744 -0.6723
vn -0.1545 0.3156 -0.9362
vn -0.0789 0.2612 -0.9621
vn 0.3053 -0.4847 -0.8197
vn 0.0280 -0.2409 -0.9702
vn 0.0395 -0.2561 -0.9658
vn -0.2730 -0.4832 -0.8319
vn 0.0198 0.0764 -0.9969
vn 0.0147 -0.2398 -0.9707
vn -0.2730 0.6760 -0.6845
vn 0.0645 0.1786 -0.9818
vn 0.4162 0.0659 -0.9069
vn 0.5878 0.3922 -0.7076
vn 0.3803 0.1245 -0.9165
vn 0.3835 0.1287 -0.9145
vn 0.5878 -0.2027 -0.7832
vn 0.3824 0.1069 -0.9178
vn 0.3797 0.1116 -0.9183
vn -0.5553 -0.1996 -0.8073
vn -0.3310 0.1108 -0.9371
vn -0.3423 0.1097 -0.9332
vn -0.5553 0.3953 -0.7317
vn -0.4020 0.2088 -0.8915
vn -0.4026 0.1948 -0.8944
vn 0.0137 0.1261 -0.9919
vn 0.0102 0.1261 -0.9920
vn 0.0134 0.1297 -0.9915
vn 0.0175 0.1251 -0.9920
vn 0.0422 0.1105 -0.9930
vn 0.0201 0.1432 -0.9895
vn 0.0239 0.1835 -0.9827
vn 0.0971 0.1171 -0.9884
vn -0.0149 0.1246 -0.9921
vn -0.2283 0.0919 -0.9692
vn -0.7416 0.4601 -0.4882
vn -0.6331 0.5026 -0.5887
vn -0.6562 0.4850 -0.5781
vn -0.7416 -0.3233 -0.5878
vn -0.6712 -0.3098 -0.6734
vn -0.6422 -0.3246 -0.6944
vn -0.4587 -0.3234 -0.8277
vn -0.5213 -0.3684 -0.7698
vn -0.4178 -0.3185 -0.8509
vn -0.3705 -0.2602 -0.8917
vn -0.2884 -0.2634 -0.9206
vn 0.0970 0.1134 -0.9888
vn -0.2653 0.3376 -0.9031
vn -0.2033 0.0729 -0.9764
vn -0.4508 0.5260 -0.7212
vn -0.5257 0.5561 -0.6437
vn -0.4112 0.5260 -0.7445
vn -0.3617 0.4738 -0.8029
vn -0.2918 0.4911 -0.8208
vn -0.3792 0.5388 -0.7523
vn -0.4014 0.5296 -0.7472
vn -0.3306 0.4389 -0.8355
vn -0.2758 0.2803 -0.9194
vn -0.2905 0.3571 -0.8878
vn -0.2511 0.2344 -0.9392
vn -0.2117 0.0810 -0.9740
vn -0.2379 0.1999 -0.9505
vn -0.1983 0.0623 -0.9782
vn -0.1913 0.0177 -0.9814
vn -0.2292 -0.0410 -0.9725
vn -0.1914 0.0055 -0.9815
vn -0.1814 -0.0196 -0.9832
vn -0.1723 -0.0450 -0.9840
vn -0.2647 0.3315 -0.9056
vn -0.2606 0.2981 -0.9183
vn -0.2580 0.2686 -0.9281
vn -0.2571 0.2390 -0.9364
vn -0.2544 0.0626 -0.9651
vn -0.2596 0.0318 -0.9652
vn -0.2933 -0.1214 -0.9483
vn -0.3306 -0.2063 -0.9210
vn -0.4050 -0.3213 -0.8560
vn -0.3814 -0.3284 -0.8641
usemtl initialShadingGroup.001
s 1
f 1//1 2//2 3//2
f 4//2 5//2 6//2
f 2//2 7//2 3//2
f 3//2 7//2 8//2
f 7//2 9//2 8//2
f 9//2 10//2 8//2
f 10//2 11//2 8//2
f 6//2 5//2 12//2
f 5//2 8//2 12//2
f 12//2 8//2 13//2
f 13//2 8//2 14//2
f 8//2 11//2 14//2
f 4//3 15//3 5//3
f 15//3 16//4 5//3
f 16//4 17//3 5//3
f 18//3 5//3 19//3
f 5//3 17//3 19//3
f 5//5 18//5 8//5
f 18//5 20//5 8//5
f 20//5 21//5 8//5
f 21//5 22//5 8//5
f 22//5 23//5 8//5
f 23//5 24//5 8//5
f 24//5 25//5 8//5
f 25//5 26//5 8//5
f 26//5 27//5 8//5
f 28//6 8//5 29//5
f 29//5 8//5 30//5
f 8//5 27//5 30//5
f 3//7 8//7 31//7
f 31//7 8//7 32//8
f 32//8 8//7 33//7
f 33//7 8//7 34//7
f 34//7 8//7 35//7
f 35//7 8//7 36//7
f 36//7 8//7 37//7
f 37//7 8//7 38//7
f 28//7 39//7 8//7
f 38//7 8//7 40//7
f 39//7 41//7 8//7
f 8//7 41//7 40//7
f 1//9 3//9 42//9
f 42//9 3//9 43//9
f 43//9 3//9 44//9
f 31//9 45//9 3//9
f 3//9 45//9 44//9
f 46//10 47//10 48//10
f 49//10 48//10 50//10
f 47//10 51//10 48//10
f 48//10 51//10 50//10
f 48//11 49//11 52//11
f 49//11 53//11 52//11
f 54//11 52//11 55//11
f 55//11 52//11 56//11
f 53//11 57//11 52//11
f 56//11 52//11 58//11
f 57//11 58//11 52//11
f 59//12 60//12 52//12
f 60//12 61//12 52//12
f 48//12 52//12 46//12
f 46//12 52//12 62//12
f 61//12 63//12 52//12
f 62//12 52//12 64//12
f 63//12 64//12 52//12
f 65//10 54//10 66//10
f 55//10 67//10 54//10
f 67//10 68//10 54//10
f 54//10 68//10 66//10
f 54//13 65//13 52//13
f 65//13 69//13 52//13
f 70//13 52//13 71//13
f 71//13 52//13 72//13
f 69//13 73//13 52//13
f 72//13 52//13 74//13
f 73//13 74//13 52//13
f 70//14 75//14 52//14
f 75//14 76//14 52//14
f 59//14 52//14 77//14
f 77//14 52//14 78//14
f 76//14 79//15 52//14
f 78//14 52//14 80//14
f 79//15 80//14 52//14
f 60//10 59//10 81//10
f 77//10 82//10 59//10
f 82//10 83//10 59//10
f 59//10 83//10 81//10
f 75//10 70//10 84//10
f 71//10 85//10 70//10
f 85//10 86//10 70//10
f 70//10 86//10 84//10
f 87//16 88//16 89//16
f 90//16 91//16 92//16
f 88//16 93//16 89//16
f 89//16 93//16 94//16
f 93//16 95//16 94//16
f 95//16 96//16 94//16
f 96//16 97//16 94//16
f 92//16 91//16 98//16
f 91//16 94//16 98//16
f 98//16 94//16 99//16
f 99//16 94//16 100//16
f 97//16 100//16 94//16
f 89//17 94//17 101//17
f 101//17 94//17 102//17
f 102//17 94//17 103//17
f 103//17 94//17 104//17
f 104//17 94//17 105//17
f 105//17 94//17 106//17
f 106//17 94//17 107//17
f 107//17 94//17 108//17
f 109//18 110//18 94//17
f 110//18 111//17 94//17
f 108//17 94//17 112//17
f 111//17 113//17 94//17
f 94//17 113//17 112//17
f 87//19 89//19 114//19
f 114//19 89//19 115//19
f 115//19 89//19 116//19
f 101//19 117//19 89//19
f 89//19 117//19 116//19
f 90//20 118//20 91//20
f 118//20 119//20 91//20
f 119//20 120//20 91//20
f 121//20 91//20 122//20
f 91//20 120//20 122//20
f 91//21 121//21 94//21
f 121//21 123//21 94//21
f 123//21 124//21 94//21
f 124//21 125//21 94//21
f 125//21 126//21 94//21
f 126//21 127//22 94//21
f 127//22 128//22 94//21
f 128//22 129//21 94//21
f 129//21 130//21 94//21
f 109//21 94//21 131//21
f 131//21 94//21 132//21
f 94//21 130//21 132//21
f 1//23 42//24 2//25
f 4//26 6//27 15//28
f 2//25 42//24 7//29
f 42//24 43//30 7//29
f 43//30 44//31 7//29
f 6//27 12//32 15//28
f 15//28 12//32 16//33
f 16//33 12//32 17//34
f 12//32 13//35 17//34
f 7//29 44//31 9//36
f 44//31 45//37 9//36
f 17//34 13//35 19//38
f 28//39 29//40 39//41
f 45//37 31//42 9//36
f 31//42 32//43 9//36
f 32//43 33//44 9//36
f 9//36 33//44 10//45
f 33//44 34//46 10//45
f 10//45 34//46 11//47
f 34//46 35//48 11//47
f 35//48 36//49 11//47
f 36//49 37//50 11//47
f 37//50 38//51 11//47
f 11//47 38//51 14//52
f 38//51 40//53 14//52
f 40//53 41//54 14//52
f 41//54 39//41 14//52
f 39//41 29//40 14//52
f 29//40 30//55 14//52
f 30//55 27//56 14//52
f 27//56 26//57 14//52
f 26//57 25//58 14//52
f 25//58 24//59 14//52
f 24//59 23//60 14//52
f 23//60 22//61 14//52
f 22//61 21//62 14//52
f 14//52 21//62 13//35
f 21//62 20//63 13//35
f 20//63 18//64 13//35
f 18//64 19//38 13//35
f 46//65 62//66 47//67
f 75//68 84//69 76//70
f 71//71 72//72 85//73
f 49//74 50//75 53//76
f 60//77 81//78 61//79
f 77//80 78//81 82//82
f 65//83 66//84 69//85
f 55//86 56//87 67//88
f 83//10 82//82 81//78
f 81//78 82//82 61//79
f 82//82 78//81 61//79
f 61//79 78//81 63//89
f 78//81 80//90 63//89
f 63//89 80//90 64//91
f 80//90 79//92 64//91
f 86//10 85//73 84//69
f 84//69 85//73 76//70
f 85//73 72//72 76//70
f 76//70 72//72 79//92
f 79//92 72//72 64//91
f 72//72 74//93 64//91
f 74//93 73//94 64//91
f 64//91 73//94 62//66
f 62//66 73//94 47//67
f 47//67 73//94 51//95
f 51//95 73//94 50//75
f 50//75 73//94 53//76
f 53//76 73//94 57//96
f 57//96 73//94 58//97
f 73//94 69//85 58//97
f 69//85 66//84 58//97
f 66//84 68//98 58//97
f 58//97 68//98 56//87
f 68//98 67//88 56//87
f 87//99 114//100 88//101
f 90//102 92//103 118//104
f 92//103 98//105 118//104
f 118//104 98//105 119//106
f 119//106 98//105 120//107
f 98//105 99//108 120//107
f 120//107 99//108 122//109
f 109//110 131//111 110//112
f 88//101 114//100 93//113
f 114//100 115//114 93//113
f 115//114 116//115 93//113
f 93//113 116//115 95//116
f 116//115 117//117 95//116
f 117//117 101//118 95//116
f 101//118 102//119 95//116
f 102//119 103//120 95//116
f 95//116 103//120 96//121
f 103//120 104//122 96//121
f 104//122 105//123 96//121
f 96//121 105//123 97//124
f 105//123 106//125 97//124
f 106//125 107//126 97//124
f 107//126 108//127 97//124
f 97//124 108//127 100//128
f 108//127 112//129 100//128
f 112//129 113//130 100//128
f 113//130 111//131 100//128
f 111//131 110//112 100//128
f 110//112 131//111 100//128
f 131//111 132//132 100//128
f 132//132 130//133 100//128
f 130//133 129//134 100//128
f 129//134 128//135 100//128
f 128//135 127//136 100//128
f 127//136 126//137 100//128
f 126//137 125//138 100//128
f 125//138 124//139 100//128
f 100//128 124//139 99//108
f 124//139 123//140 99//108
f 123//140 121//141 99//108
f 121//141 122//109 99//108
